<svg width="123" height="37" viewBox="0 0 123 37" fill="none" xmlns="http://www.w3.org/2000/svg">
<g id="Group">
<g id="Group_2">
<path id="Vector" d="M117.523 1.60743C119.575 1.60743 121.371 3.23213 121.371 5.45541V32.3913C121.371 34.4435 119.746 36.2393 117.523 36.2393H5.0765C3.02424 36.2393 1.22852 34.6146 1.22852 32.3913V5.45541C1.22852 3.40315 2.85322 1.60743 5.0765 1.60743H117.523ZM117.523 0.92334H5.0765C2.59669 0.92334 0.544434 2.9756 0.544434 5.45541V32.3913C0.544434 34.8711 2.59669 36.9233 5.0765 36.9233H117.523C120.003 36.9233 122.055 34.8711 122.055 32.3913V5.45541C121.97 2.9756 120.003 0.92334 117.523 0.92334Z" fill="#4F5362"/>
<path id="Vector_2" d="M43.3003 10.0739C43.3003 10.758 43.1293 11.4421 42.6162 11.8697C42.1032 12.3827 41.5046 12.7248 40.6495 12.7248C39.7944 12.7248 39.1958 12.3827 38.6827 11.8697C38.1697 11.3566 37.8276 10.6725 37.8276 9.9029C37.8276 9.0478 38.1697 8.44923 38.6827 7.93616C39.1958 7.4231 39.8799 7.08105 40.6495 7.08105C41.077 7.08105 41.3336 7.16656 41.7611 7.25207C42.1032 7.33758 42.3597 7.59411 42.6162 7.85065L42.1032 8.36372C41.7611 7.93616 41.2481 7.76514 40.6495 7.76514C40.0509 7.76514 39.6234 7.93616 39.1958 8.36372C38.7683 8.79127 38.5972 9.30433 38.5972 9.9029C38.5972 10.5015 38.7683 11.0145 39.1958 11.4421C39.6234 11.8697 40.1364 12.0407 40.6495 12.0407C41.2481 12.0407 41.7611 11.8697 42.1887 11.4421C42.5307 11.1001 42.6162 10.8435 42.6162 10.3305H40.6495V9.64638H43.2148C43.3003 9.90291 43.3003 9.98842 43.3003 10.0739ZM47.4048 7.93616H44.925V9.73188H47.2338V10.2449H44.925V11.9552H47.4048V12.5537H44.2409V7.16656H47.4048V7.93616ZM50.3977 12.5537H49.7136V7.93616H48.1744V7.25207H51.8514V7.85065H50.3122V12.6392H50.3977V12.5537ZM54.5022 12.5537V7.16656H55.1863V12.5537H54.5022ZM58.3502 12.5537H57.6661V7.93616H56.2124V7.25207H59.8894V7.85065H58.3502V12.5537ZM66.9013 11.9552C66.3882 12.4682 65.7041 12.8103 64.9345 12.8103C64.0794 12.8103 63.4808 12.4682 62.9678 11.9552C62.4547 11.4421 62.1127 10.758 62.1127 9.98841C62.1127 9.30433 62.4547 8.53474 62.9678 8.02167C63.3953 7.4231 64.0794 7.08105 64.849 7.08105C65.7041 7.08105 66.3027 7.4231 66.8158 7.93616C67.3288 8.44923 67.6709 9.13331 67.6709 9.9029C67.6709 10.6725 67.4143 11.2711 66.9013 11.9552ZM63.3953 11.4421C63.8229 11.8697 64.3359 12.0407 64.849 12.0407C65.3621 12.0407 65.8751 11.8697 66.3027 11.4421C66.7302 11.0145 66.9013 10.5015 66.9013 9.9029C66.9013 9.30433 66.7302 8.79127 66.3027 8.36372C65.8751 7.93616 65.3621 7.76514 64.849 7.76514C64.3359 7.76514 63.8229 7.93616 63.3953 8.36372C62.9678 8.79127 62.7968 9.30433 62.7968 9.9029C62.7968 10.5015 62.9678 11.0145 63.3953 11.4421ZM68.697 12.5537V7.16656H69.5521L72.1174 11.4421V7.16656H72.8015V12.5537H72.1174L69.2956 8.10718V12.5537H68.697Z" fill="#4F5362" stroke="#4F5362" stroke-width="0.206337" stroke-miterlimit="10"/>
<path id="Vector_3" d="M61.9414 20.506C59.8036 20.506 58.0934 22.1307 58.0934 24.354C58.0934 26.4918 59.8036 28.202 61.9414 28.202C64.0792 28.202 65.7894 26.5773 65.7894 24.354C65.7894 22.0452 63.9937 20.506 61.9414 20.506ZM61.9414 26.5773C60.8298 26.5773 59.8036 25.6366 59.8036 24.2685C59.8036 22.9003 60.8298 21.9597 61.9414 21.9597C63.053 21.9597 64.0792 22.9003 64.0792 24.2685C64.1647 25.6366 63.053 26.5773 61.9414 26.5773ZM53.6469 20.506C51.5091 20.506 49.7989 22.1307 49.7989 24.354C49.7989 26.4918 51.5091 28.202 53.6469 28.202C55.7846 28.202 57.4949 26.5773 57.4949 24.354C57.4093 22.0452 55.6991 20.506 53.6469 20.506ZM53.6469 26.5773C52.5352 26.5773 51.5091 25.6366 51.5091 24.2685C51.5091 22.9003 52.5352 21.9597 53.6469 21.9597C54.7585 21.9597 55.7846 22.9003 55.7846 24.2685C55.7846 25.6366 54.7585 26.5773 53.6469 26.5773ZM43.6421 21.6176V23.2423H47.5756C47.4901 24.183 47.1481 24.7815 46.635 25.2946C46.1219 25.8077 45.1813 26.4918 43.6421 26.4918C41.2478 26.4918 39.4521 24.525 39.4521 22.1307C39.4521 19.7364 41.3333 17.7697 43.6421 17.7697C45.0103 17.7697 45.9509 18.2827 46.5495 18.8813L47.6611 17.7697C46.7205 17.0001 45.3523 16.2305 43.4711 16.2305C40.1362 16.2305 37.4854 18.8813 37.4854 22.2162C37.4854 25.5511 40.3072 28.202 43.4711 28.202C45.1813 28.202 46.5495 27.6034 47.5756 26.5773C48.6017 25.5511 49.0293 24.0119 49.0293 22.7293C49.0293 22.3017 49.0293 22.0452 48.9438 21.7032L43.6421 21.6176ZM84.3452 22.9003C84.0032 22.0452 83.1481 20.506 81.1813 20.506C79.2146 20.506 77.5899 22.0452 77.5899 24.354C77.5899 26.4918 79.2146 28.202 81.4379 28.202C83.1481 28.202 84.2597 27.1758 84.6017 26.5773L83.2336 25.7222C82.806 26.3207 82.2074 26.7483 81.3523 26.7483C80.4972 26.7483 79.8987 26.3207 79.4711 25.6366L84.6017 23.4989L84.3452 22.9003ZM79.2146 24.183C79.2146 22.7293 80.3262 21.8742 81.1813 21.8742C81.7799 21.8742 82.3785 22.2162 82.635 22.7293L79.2146 24.183ZM74.939 27.9454H76.5637V16.658H74.939V27.9454ZM72.2882 21.3611C71.8606 20.9336 71.1766 20.506 70.236 20.506C68.2692 20.506 66.559 22.1307 66.559 24.354C66.559 26.4918 68.2692 28.202 70.236 28.202C71.1766 28.202 71.8606 27.7744 72.2882 27.3469H72.3737V27.8599C72.3737 29.3136 71.5186 30.1687 70.3215 30.1687C69.2953 30.1687 68.6968 29.4846 68.3547 28.8005L66.901 29.3991C67.3286 30.4252 68.4402 31.7079 70.3215 31.7079C72.2882 31.7079 73.9129 30.5963 73.9129 27.6889V20.7625H72.3737L72.2882 21.3611ZM70.3215 26.5773C69.2098 26.5773 68.1837 25.6366 68.1837 24.2685C68.1837 22.9003 69.1243 21.8742 70.3215 21.8742C71.4331 21.8742 72.3737 22.9003 72.3737 24.2685C72.3737 25.6366 71.4331 26.5773 70.3215 26.5773ZM92.2977 16.658H88.2787V27.9454H89.9034V23.5844H92.2977C94.1789 23.5844 95.9747 22.2162 95.9747 20.0784C95.9747 17.9407 94.0934 16.658 92.2977 16.658ZM92.2977 22.0452H89.9034V18.1972H92.2977C93.4949 18.1972 94.2644 19.2233 94.2644 20.164C94.1789 21.0191 93.4949 22.0452 92.2977 22.0452ZM102.645 20.506C101.447 20.506 100.165 21.0191 99.6516 22.3017L101.105 22.9003C101.447 22.3017 102.046 22.0452 102.645 22.0452C103.5 22.0452 104.355 22.5583 104.355 23.4989V23.5844C104.013 23.4134 103.414 23.1568 102.645 23.1568C101.02 23.1568 99.4806 24.0975 99.4806 25.7222C99.4806 27.2613 100.849 28.202 102.302 28.202C103.414 28.202 104.013 27.6889 104.44 27.0903H104.526V27.9454H106.15V23.5844C106.065 21.5321 104.526 20.506 102.645 20.506ZM102.473 26.5773C101.96 26.5773 101.105 26.2352 101.105 25.6366C101.105 24.7815 102.046 24.4395 102.816 24.4395C103.5 24.4395 103.927 24.6105 104.355 24.867C104.355 25.8932 103.414 26.5773 102.473 26.5773ZM111.965 20.677L109.998 25.5511H109.913L107.946 20.677H106.065L109.058 27.5179L107.348 31.3659H109.058L113.675 20.7625H111.965V20.677ZM96.9153 27.9454H98.54V16.658H96.9153V27.9454Z" fill="#4F5362"/>
</g>
<path id="Vector_4" d="M10.0364 7.76465C9.86542 7.93567 9.60889 8.44874 9.60889 8.9618V28.8003C9.60889 29.3133 9.77991 29.8264 10.0364 29.9974L10.1219 30.0829L21.2383 18.9665V18.7955L10.0364 7.76465Z" fill="url(#paint0_linear_85_1425)"/>
<path id="Vector_5" d="M25.0007 22.7281L21.3237 19.0511V18.8801L25.0007 15.2031H25.0862L29.5328 17.6829C30.7299 18.367 30.7299 19.5642 29.5328 20.2483L25.0007 22.7281Z" fill="url(#paint1_linear_85_1425)"/>
<path id="Vector_6" d="M25.0865 22.6439L21.2385 18.7959L10.0366 29.9978C10.4642 30.4254 11.1483 30.5109 11.9179 30.0833L25.0865 22.6439Z" fill="url(#paint2_linear_85_1425)"/>
<path id="Vector_7" d="M25.0865 15.1184L11.9179 7.59342C11.2338 7.16587 10.4642 7.16587 10.0366 7.67893L21.2385 18.8808L25.0865 15.1184Z" fill="url(#paint3_linear_85_1425)"/>
<path id="Vector_8" opacity="0.2" d="M25.0004 22.6436L11.9173 30.083C11.2332 30.5105 10.5491 30.5105 10.2071 30.083L10.1216 30.1685L10.2071 30.254C10.6346 30.6816 11.2332 30.6816 11.9173 30.254L25.0004 22.6436Z" fill="black"/>
<path id="Vector_9" opacity="0.12" d="M10.0364 29.9968C9.86542 29.6547 9.60889 29.3127 9.60889 28.7996V28.8851C9.60889 29.3982 9.77991 29.9112 10.0364 30.0823V29.9968ZM29.5329 20.0775L25.0008 22.6428L25.0863 22.7284L29.5329 20.2485C30.1314 19.9065 30.4735 19.3934 30.4735 18.8804C30.388 19.3934 30.0459 19.7355 29.5329 20.0775Z" fill="black"/>
<path id="Vector_10" opacity="0.25" d="M11.9179 7.85039L29.4475 17.8551C30.0461 18.1972 30.3882 18.5392 30.3882 18.9668C30.3882 18.4537 30.0461 18.0262 29.4475 17.5986L11.9179 7.59386C10.7207 6.90977 9.69457 7.50835 9.69457 8.96203V9.04754C9.60906 7.59386 10.7207 7.08079 11.9179 7.85039Z" fill="white"/>
</g>
<defs>
<linearGradient id="paint0_linear_85_1425" x1="20.3064" y1="8.7588" x2="5.22373" y2="23.8416" gradientUnits="userSpaceOnUse">
<stop stop-color="#00A0FF"/>
<stop offset="0.007" stop-color="#00A1FF"/>
<stop offset="0.26" stop-color="#00BEFF"/>
<stop offset="0.512" stop-color="#00D2FF"/>
<stop offset="0.76" stop-color="#00DFFF"/>
<stop offset="1" stop-color="#00E3FF"/>
</linearGradient>
<linearGradient id="paint1_linear_85_1425" x1="31.1229" y1="18.9524" x2="9.37763" y2="18.9524" gradientUnits="userSpaceOnUse">
<stop stop-color="#FFE000"/>
<stop offset="0.409" stop-color="#FFBD00"/>
<stop offset="0.775" stop-color="#FFA500"/>
<stop offset="1" stop-color="#FF9C00"/>
</linearGradient>
<linearGradient id="paint2_linear_85_1425" x1="23.0015" y1="20.9443" x2="2.54862" y2="41.3971" gradientUnits="userSpaceOnUse">
<stop stop-color="#FF3A44"/>
<stop offset="1" stop-color="#C31162"/>
</linearGradient>
<linearGradient id="paint3_linear_85_1425" x1="7.2541" y1="1.11111" x2="16.387" y2="10.245" gradientUnits="userSpaceOnUse">
<stop stop-color="#32A071"/>
<stop offset="0.069" stop-color="#2DA771"/>
<stop offset="0.476" stop-color="#15CF74"/>
<stop offset="0.801" stop-color="#06E775"/>
<stop offset="1" stop-color="#00F076"/>
</linearGradient>
</defs>
</svg>
