<svg width="122" height="37" viewBox="0 0 122 37" fill="none" xmlns="http://www.w3.org/2000/svg">
<g id="Group">
<g id="XMLID_22_">
<g id="XMLID_23_">
<path id="XMLID_25_" d="M22.1811 19.2227C22.1811 16.7429 24.2334 15.4602 24.3189 15.4602C23.2072 13.8355 21.326 13.4935 20.7274 13.4935C19.1882 13.3225 17.7345 14.4341 17.0505 14.4341C16.1954 14.4341 15.0837 13.4935 13.7155 13.579C12.0908 13.579 10.5516 14.5196 9.69654 16.0588C7.98633 19.0517 9.26899 23.4982 10.8937 25.978C11.7488 27.2607 12.7749 28.4578 13.9721 28.4578C15.1692 28.3723 15.6823 27.6027 17.136 27.6027C18.5897 27.6027 19.1027 28.4578 20.2999 28.2868C21.668 28.2868 22.4376 27.0042 23.2927 25.8925C24.2334 24.5244 24.6609 23.2417 24.6609 23.0707C24.7464 23.2417 22.1811 22.2156 22.1811 19.2227Z" fill="#4F5362"/>
<path id="XMLID_24_" d="M19.7014 11.9548C20.3855 11.0997 20.813 9.9881 20.7275 8.87646C19.7869 8.87646 18.5897 9.56055 17.8202 10.3301C17.2216 11.0142 16.7085 12.2969 16.794 13.323C17.9057 13.4085 19.1028 12.81 19.7014 11.9548Z" fill="#4F5362"/>
</g>
</g>
<path id="Vector" d="M37.9148 25.4653H33.7247L32.6986 28.4582H30.8174L34.9219 17.2563H36.8031L40.8221 28.4582H38.9409L37.9148 25.4653ZM34.0668 24.0116H37.4872L35.8625 19.052L34.0668 24.0116ZM49.5442 24.4392C49.5442 27.0045 48.176 28.5437 46.1238 28.5437C45.0122 28.5437 44.0715 28.0306 43.5585 27.09V31.109H41.9338V20.2491H43.5585V21.6173C44.0715 20.7622 45.0122 20.1636 46.1238 20.1636C48.0905 20.1636 49.5442 21.7883 49.5442 24.4392ZM47.834 24.4392C47.834 22.8145 46.9789 21.6173 45.6962 21.6173C44.4991 21.6173 43.5585 22.729 43.5585 24.4392C43.5585 26.1494 44.4136 27.261 45.6962 27.261C46.9789 27.09 47.834 26.0639 47.834 24.4392ZM58.5228 24.4392C58.5228 27.0045 57.1547 28.5437 55.1024 28.5437C53.9908 28.5437 53.0502 28.0306 52.5371 27.09V31.109H50.9124V20.2491H52.4516V21.6173C52.9646 20.7622 53.9053 20.1636 55.0169 20.1636C57.0692 20.1636 58.5228 21.7883 58.5228 24.4392ZM56.7271 24.4392C56.7271 22.8145 55.872 21.6173 54.5894 21.6173C53.3922 21.6173 52.4516 22.729 52.4516 24.4392C52.4516 26.1494 53.3067 27.261 54.5894 27.261C55.9575 27.09 56.7271 26.0639 56.7271 24.4392ZM64.3376 25.2943C64.4231 26.4059 65.5347 27.1755 66.9884 27.1755C68.4421 27.1755 69.4682 26.4914 69.4682 25.3798C69.4682 24.5247 68.8696 24.0116 67.416 23.5841L65.9623 23.242C63.91 22.729 62.9694 21.7883 62.9694 20.2491C62.9694 18.2824 64.5941 16.9142 66.9884 16.9142C69.3827 16.9142 71.0074 18.2824 71.0074 20.2491H69.3827C69.2972 19.1375 68.3566 18.4534 66.9884 18.4534C65.6202 18.4534 64.7651 19.1375 64.7651 20.0781C64.7651 20.9332 65.3637 21.3608 66.8174 21.7028L68.0145 22.0449C70.2378 22.5579 71.1784 23.4986 71.1784 25.1233C71.1784 27.1755 69.5537 28.5437 66.8174 28.5437C64.3376 28.5437 62.7129 27.261 62.6274 25.2088C62.7129 25.4653 64.3376 25.2943 64.3376 25.2943ZM74.8554 18.3679V20.3347H76.3946V21.6173H74.8554V26.1494C74.8554 26.8335 75.1974 27.1755 75.8815 27.1755H76.3946V28.5437C76.2236 28.5437 75.8815 28.6292 75.454 28.6292C73.8293 28.6292 73.2307 28.0306 73.2307 26.4914V21.6173H72.0335V20.2491H73.1452V18.2824L74.8554 18.3679ZM77.2497 24.4392C77.2497 21.8738 78.7889 20.3347 81.0977 20.3347C83.492 20.3347 84.9457 21.9594 84.9457 24.4392C84.9457 27.0045 83.4065 28.5437 81.0977 28.5437C78.7889 28.5437 77.2497 27.0045 77.2497 24.4392ZM83.3209 24.4392C83.3209 22.6434 82.4658 21.6173 81.1832 21.6173C79.815 21.6173 79.0454 22.6434 79.0454 24.4392C79.0454 26.2349 79.9005 27.261 81.1832 27.261C82.4658 27.1755 83.3209 26.1494 83.3209 24.4392ZM86.3993 20.2491H87.9385V21.6173C88.1096 20.6767 88.9646 20.1636 89.9053 20.1636C90.0763 20.1636 90.3328 20.1636 90.5038 20.2491V21.7883C90.4183 21.7028 90.0763 21.7028 89.8198 21.7028C88.7936 21.7028 88.1095 22.3869 88.1095 23.5841V28.4582H86.4848C86.3993 28.4582 86.3993 20.2491 86.3993 20.2491ZM98.2853 26.0639C98.1143 27.5176 96.6606 28.5437 94.7794 28.5437C92.3851 28.5437 90.9314 27.0045 90.9314 24.4392C90.9314 21.8738 92.3851 20.1636 94.7794 20.1636C97.0027 20.1636 98.4563 21.7028 98.4563 24.1826V24.7812H92.5561V24.9522C92.5561 26.4059 93.4112 27.261 94.6939 27.261C95.6345 27.261 96.3186 26.8335 96.5751 26.1494C96.5751 26.0639 98.2853 26.0639 98.2853 26.0639ZM92.5561 23.5841H96.6606C96.6606 22.3014 95.8055 21.5318 94.6939 21.5318C93.4967 21.5318 92.7271 22.3014 92.5561 23.5841ZM33.8958 8.79071C35.435 8.79071 36.4611 9.73133 36.4611 11.4415C36.4611 13.1518 35.5205 14.0924 33.8958 14.0924H31.929V8.7052H33.8958V8.79071ZM32.8696 13.4083H33.8958C35.0074 13.4083 35.606 12.7242 35.606 11.4415C35.606 10.1589 35.0074 9.4748 33.8958 9.4748H32.8696V13.4083ZM37.4017 12.2111C37.4017 10.843 38.0858 10.1589 39.3685 10.1589C40.4801 10.1589 41.3352 11.014 41.3352 12.2111C41.3352 13.5793 40.6511 14.2634 39.3685 14.2634C38.0858 14.2634 37.4017 13.4083 37.4017 12.2111ZM40.3946 12.2111C40.3946 11.2705 39.967 10.7575 39.2829 10.7575C38.5989 10.7575 38.1713 11.2705 38.1713 12.2111C38.1713 13.1518 38.5989 13.6648 39.2829 13.6648C39.967 13.4938 40.3946 12.9807 40.3946 12.2111ZM46.2093 14.1779H45.3542L44.4991 11.185H44.4136L43.5585 14.1779H42.7034L41.5917 10.1589H42.4468L43.1309 13.2373H43.2164L44.0715 10.1589H44.7556L45.6107 13.2373H45.6962L46.3803 10.1589H47.2354C47.4065 10.1589 46.2093 14.1779 46.2093 14.1779ZM48.3471 10.1589H49.0312V10.7575H49.1167C49.2877 10.3299 49.7152 10.0734 50.3138 10.0734C51.2544 10.0734 51.7675 10.5864 51.7675 11.6126V14.1779H50.9124V11.6981C50.9124 11.0995 50.5704 10.7575 50.0573 10.7575C49.4587 10.7575 49.1167 11.185 49.1167 11.7836V14.1779H48.1761C48.3471 14.1779 48.3471 10.1589 48.3471 10.1589ZM53.0502 8.53418H53.9053V14.2634H53.0502V8.53418ZM54.9314 12.2111C54.9314 10.843 55.6155 10.1589 56.8981 10.1589C58.0098 10.1589 58.8649 11.014 58.8649 12.2111C58.8649 13.5793 58.1808 14.2634 56.8981 14.2634C55.701 14.2634 54.9314 13.4083 54.9314 12.2111ZM58.0098 12.2111C58.0098 11.2705 57.5822 10.7575 56.8981 10.7575C56.2141 10.7575 55.7865 11.2705 55.7865 12.2111C55.7865 13.1518 56.2141 13.6648 56.8981 13.6648C57.5822 13.4938 58.0098 12.9807 58.0098 12.2111ZM59.6345 12.9807C59.6345 12.2967 60.1476 11.8691 61.1737 11.6981L62.2853 11.6126V11.2705C62.2853 10.843 61.9433 10.6719 61.4302 10.6719C61.0027 10.6719 60.7461 10.843 60.5751 11.0995H59.72C59.8055 10.4154 60.4041 9.98786 61.3447 9.98786C62.3708 9.98786 62.8839 10.5009 62.8839 11.356V14.1779H62.1998V13.5793H62.1143C61.9433 14.0069 61.4302 14.1779 60.9171 14.1779C60.1475 14.2634 59.6345 13.7503 59.6345 12.9807ZM62.1998 12.7242V12.3822L61.1737 12.4677C60.6606 12.4677 60.3186 12.6387 60.3186 13.0662C60.3186 13.4938 60.6606 13.6648 61.0027 13.6648C61.7723 13.4938 62.1998 13.2373 62.1998 12.7242ZM64.081 12.2111C64.081 10.9285 64.6796 10.1589 65.7057 10.1589C66.2188 10.1589 66.7319 10.5009 66.9029 10.843H66.9884V8.53418H67.8435V14.2634H67.1594V13.6648H67.0739C66.9029 14.0924 66.3898 14.3489 65.8768 14.3489C64.6796 14.2634 64.081 13.4083 64.081 12.2111ZM64.8506 12.2111C64.8506 13.0662 65.2782 13.5793 65.9623 13.5793C66.6464 13.5793 67.0739 13.0662 67.0739 12.2111C67.0739 11.356 66.6464 10.843 65.9623 10.843C65.2782 10.7575 64.8506 11.2705 64.8506 12.2111ZM71.1784 12.2111C71.1784 10.843 71.8625 10.1589 73.1452 10.1589C74.2568 10.1589 75.1119 11.014 75.1119 12.2111C75.1119 13.5793 74.4278 14.2634 73.1452 14.2634C71.8625 14.2634 71.1784 13.4083 71.1784 12.2111ZM74.1713 12.2111C74.1713 11.2705 73.7437 10.7575 73.0597 10.7575C72.3756 10.7575 71.948 11.2705 71.948 12.2111C71.948 13.1518 72.3756 13.6648 73.0597 13.6648C73.7437 13.4938 74.1713 12.9807 74.1713 12.2111ZM75.967 10.1589H76.6511V10.7575H76.7366C76.9076 10.3299 77.3352 10.0734 77.9338 10.0734C78.8744 10.0734 79.3875 10.5864 79.3875 11.6126V14.1779H78.5323V11.6981C78.5323 11.0995 78.1903 10.7575 77.6772 10.7575C77.0787 10.7575 76.7366 11.185 76.7366 11.7836V14.1779H75.8815L75.967 10.1589ZM83.9195 9.04725V10.0734H84.8601V10.7575H83.9195V12.8097C83.9195 13.2373 84.0905 13.4083 84.5181 13.4083H84.8601V14.0069H84.4326C83.492 14.0069 83.2354 13.6648 83.2354 12.8952V10.7575H82.6369V10.0734H83.2354V9.04725H83.9195ZM85.9718 8.53418H86.8269V10.843H86.9124C87.0834 10.4154 87.511 10.1589 88.1095 10.1589C88.9647 10.1589 89.5632 10.6719 89.5632 11.6981V14.2634H88.7081V11.8691C88.7081 11.2705 88.3661 10.9285 87.853 10.9285C87.2544 10.9285 86.8269 11.356 86.8269 11.9546V14.3489H85.9718C86.0573 14.3489 85.9718 8.53418 85.9718 8.53418ZM94.0953 13.1518C93.9243 13.8358 93.2402 14.2634 92.3851 14.2634C91.2734 14.2634 90.5038 13.4083 90.5038 12.2111C90.5038 10.843 91.1879 10.0734 92.3851 10.0734C93.4967 10.0734 94.2663 10.7575 94.2663 12.1256V12.4677H91.359C91.359 13.1518 91.7865 13.5793 92.3851 13.5793C92.8981 13.5793 93.2402 13.4083 93.3257 13.0662C93.3257 12.9807 94.0953 13.1518 94.0953 13.1518ZM91.2734 11.7836H93.3257C93.3257 11.185 92.8981 10.7575 92.2996 10.7575C91.7865 10.7575 91.359 11.185 91.2734 11.7836Z" fill="#4F5362"/>
<path id="Vector_2" d="M117.012 1.69294C119.065 1.69294 120.86 3.31764 120.86 5.54092V32.4768C120.86 34.529 119.236 36.3248 117.012 36.3248H4.56576C2.5135 36.3248 0.717776 34.7001 0.717776 32.4768V5.45541C0.717776 3.40315 2.34248 1.60743 4.56576 1.60743H117.012M117.012 0.92334H4.56576C2.08595 0.92334 0.0336914 2.9756 0.0336914 5.45541V32.3913C0.0336914 34.8711 2.08595 36.9233 4.56576 36.9233H117.012C119.492 36.9233 121.544 34.8711 121.544 32.3913V5.45541C121.459 2.9756 119.407 0.92334 117.012 0.92334Z" fill="#4F5362"/>
</g>
</svg>
