<svg width="100" height="100" viewBox="0 0 100 100" fill="none" xmlns="http://www.w3.org/2000/svg">
<g id="Icons">
<path id="Vector" d="M85.7656 41.7656C87.5957 49.5058 86.8654 57.6308 83.6842 64.9205C80.5031 72.2102 75.0428 78.2712 68.1234 82.1931C61.2041 86.1151 53.1991 87.6864 45.3105 86.6711C37.422 85.6559 30.0758 82.1087 24.375 76.5625" stroke="#1D2939" stroke-width="3" stroke-linecap="round"/>
<path id="Vector_2" d="M14.0626 58.0781C13.5109 55.5106 13.2333 52.8918 13.2344 50.2656C13.2199 43.0507 15.3304 35.9912 19.3025 29.9681C23.2746 23.9449 28.9325 19.2248 35.5701 16.3968C42.2077 13.5688 49.5312 12.758 56.6267 14.0657C63.7221 15.3734 70.2754 18.7416 75.4688 23.75" stroke="#1D2939" stroke-width="3" stroke-linecap="round"/>
<path id="Vector_3" d="M58.9531 25.375L75.9688 24.125L74.6406 8.1875" stroke="#1D2939" stroke-width="3" stroke-linecap="round"/>
<path id="Vector_4" d="M40.4844 74.625L23.4844 75.875L24.8125 91.8125" stroke="#1D2939" stroke-width="3" stroke-linecap="round"/>
</g>
</svg>
