<svg width="74" height="100" viewBox="0 0 74 100" fill="none" xmlns="http://www.w3.org/2000/svg">
<g id="svgi-clothing-size">
<g id="Group">
<path id="Vector" d="M35.4507 95.4402V98.5H33.8949V95.3279L33.8949 95.3041C33.8951 94.8885 33.8955 94.0511 33.3344 93.4015C33.0322 93.0516 32.6692 92.8677 32.3738 92.7614C32.0951 92.6611 31.7991 92.6034 31.5491 92.5608L31.4674 92.5469L31.3846 92.5421C30.4209 92.4858 29.4572 92.4294 28.4926 92.373C23.9585 92.1079 19.4054 91.8416 14.745 91.577C12.967 91.4664 11.6456 89.9819 11.7598 88.0051L11.7604 87.9949C11.9002 85.248 12.1693 82.4992 12.4543 79.588C12.4824 79.301 12.5107 79.0125 12.539 78.7223L12.6993 77.0767H12.5537C12.5664 76.9505 12.5794 76.8176 12.5928 76.678C16.5001 76.0993 20.3099 75.1723 23.9503 74.2865C24.6909 74.1063 25.4245 73.9278 26.1505 73.7543L26.2206 73.7375L26.2888 73.7141C26.6912 73.576 27.1057 73.4685 27.5933 73.3483C27.6569 73.3326 27.7218 73.3167 27.788 73.3005C28.2099 73.1971 28.6838 73.081 29.1866 72.9339C36.5487 71.0075 44.4922 68.8885 52.136 65.6186L52.1425 65.6159L52.149 65.613L53.9333 64.8296C55.2156 68.4863 55.9729 71.8321 56.4095 74.3068C56.5931 75.3474 56.7195 76.2313 56.8043 76.9163H56.6378L56.8074 78.5694C57.1218 81.6351 57.4314 84.6563 57.585 87.8306L57.5855 87.8398C57.702 89.9766 56.2258 91.4691 54.5951 91.5773C53.7135 91.6288 52.8319 91.6804 51.9497 91.732C47.3487 92.0011 42.7303 92.2712 38.0029 92.5397C37.4709 92.5436 36.5807 92.6233 35.9587 93.3335C35.3552 94.0224 35.3727 94.8771 35.4507 95.4402ZM59.7316 20.0878L59.7272 20.1043C59.4166 21.021 59.0998 21.9678 58.7824 23.064C58.6754 23.4157 58.5647 23.7721 58.4527 24.1331C57.5854 26.9264 56.6321 29.9965 56.6321 33.3302C56.6321 34.711 56.3547 35.902 55.8293 36.9376L55.8133 36.9691L55.7988 37.0013C55.2826 38.1497 54.3358 39.2508 53.1339 40.2916L53.1014 40.3197L53.0706 40.3497C52.9461 40.4706 52.8503 40.5934 52.7889 40.6762C52.728 40.7584 52.6714 40.8422 52.6342 40.8973L52.6301 40.9033C52.5883 40.9652 52.5659 40.9981 52.5477 41.0231L52.1321 41.4327V41.8836C51.0937 44.0999 50.1162 46.3442 49.2008 48.6141C48.7453 49.6283 48.3062 50.7708 48.1473 51.9884H47.367C38.8792 51.9884 29.8825 51.8284 21.229 50.1285C21.0609 50.0766 20.9078 50.0387 20.7738 50.0092C20.5811 49.4659 20.3485 49.0013 20.1491 48.607C20.0384 48.3113 19.8998 48.037 19.8014 47.8423L19.7862 47.8123C19.6559 47.5542 19.5858 47.4097 19.5439 47.2876L19.5277 47.2404L19.5084 47.1944C18.7052 45.2787 17.8328 43.3926 16.8931 41.54L16.893 41.5399C16.6265 41.0146 16.3318 40.7201 16.1469 40.5354L16.1346 40.5231L16.0955 40.484L16.0537 40.4479C14.8667 39.4241 14.0727 38.4802 13.5486 37.3166L13.5486 37.3165L13.5439 37.3063C12.995 36.1115 12.7132 34.8113 12.7181 33.4964V33.4907C12.7181 31.5629 12.3631 29.7569 11.9268 28.0739C11.7181 27.2689 11.4864 26.4761 11.2634 25.7134L11.2343 25.6138C11.0001 24.8125 10.7769 24.0442 10.584 23.2813L10.5698 23.2252L10.5514 23.1703C10.5353 23.1225 10.5192 23.0747 10.5031 23.027C10.1989 22.1235 9.90363 21.2467 9.61033 20.2323C8.98558 17.8621 9.99608 15.8956 12.0075 15.2343L12.0076 15.2343L12.0161 15.2314C14.9512 14.2468 17.9173 13.3574 20.9098 12.5645C21.5976 12.3932 22.2375 12.1824 22.8199 11.9905L22.8529 11.9796C23.4622 11.7789 24.0119 11.5988 24.5903 11.4566L24.5959 11.4552C25.1653 11.3128 25.7426 11.0104 26.1816 10.4894C26.6111 9.97954 26.8349 9.34626 26.854 8.66558C26.9355 7.92739 26.9767 7.19727 27.0152 6.51206L27.0158 6.50075C27.0561 5.78322 27.0937 5.11416 27.1671 4.45116L27.1698 4.42758L27.1716 4.40392C27.2406 3.52897 27.4261 3.20853 27.5771 3.04688C27.7504 2.8613 28.1154 2.62999 29.0636 2.41354L29.2343 2.37457L29.3915 2.29731C30.1292 1.93469 30.8827 1.79975 31.8624 1.64122L31.8694 1.64006C32.6897 1.50334 33.5308 1.5 34.5112 1.5C36.2898 1.5 38.2517 1.79327 40.0952 2.24916L40.1083 2.2524L40.1215 2.2554C41.0521 2.46784 41.3725 2.69237 41.5279 2.86568C41.6915 3.04829 41.8749 3.3989 42.0219 4.32567C42.1825 5.75814 42.3298 7.09191 42.3298 8.41163C42.3298 9.15999 42.5755 9.80737 43.0471 10.32C43.4548 10.763 43.9646 11.0241 44.2943 11.186L44.4383 11.2567L44.594 11.2954C45.1724 11.4389 45.7221 11.6197 46.3327 11.8209L46.3423 11.824C46.9228 12.0153 47.5601 12.2253 48.2465 12.3964C49.7694 12.8718 51.2518 13.3067 52.7203 13.7376L52.726 13.7393C54.2024 14.1725 55.6649 14.6017 57.1638 15.0697C58.3595 15.5123 59.1154 16.2217 59.522 17.0249C59.9349 17.8405 60.053 18.8831 59.7316 20.0878Z" stroke="#1D2939" stroke-width="3"/>
<path id="Vector_2" d="M52.7839 62.7906H46.6095C37.7443 62.7906 28.2467 62.458 18.9071 60.6301C16.056 59.9673 12.7327 59.1371 9.88387 57.3092C7.19085 55.4813 5.60945 53.1557 5.60945 50.4976C5.45131 45.6813 10.042 42.8604 11.7815 41.8604L14.1583 46.3464C11.6234 47.8394 10.3583 49.1697 10.3583 50.3324C10.3583 51.1627 11.149 52.1604 12.4164 52.9906C14.6327 54.4859 17.3234 55.1487 19.8583 55.6487C28.7211 57.4743 37.9048 57.8069 46.6095 57.8069H49.7769C57.056 57.8069 64.656 57.9743 71.6211 55.6487L73.0467 60.465C66.3978 62.6255 59.4327 62.7906 52.7839 62.7906Z" fill="#1D2939"/>
<path id="Vector_3" d="M3.46475 72.0928C2.68103 72.0928 1.73917 72.0928 0.953125 71.9323L1.26708 66.9858C8.33685 67.4649 15.7182 65.5486 22.7857 63.7928C23.7299 63.4742 24.8275 63.3137 25.7717 62.9951C34.0973 60.9207 43.0508 58.5277 51.0601 54.537C53.4159 53.4207 55.7717 52.1416 57.4996 50.2277C58.5996 49.1114 59.0694 47.9951 58.9136 47.1951C58.7555 46.0789 57.1857 45.1207 54.3578 44.323L55.6136 39.5347C57.4973 40.0137 62.6834 41.6091 63.6252 46.0789C64.0973 48.4742 63.1531 51.0254 60.9555 53.4207C58.5996 55.8137 55.6136 57.4091 52.9438 58.6858C44.4624 62.6765 35.3531 65.23 26.7113 67.4649C25.7717 67.7835 24.8275 67.944 23.7299 68.2626C17.288 70.4951 10.5345 72.0928 3.46475 72.0928Z" fill="#1D2939"/>
</g>
</g>
</svg>
