<svg width="100" height="100" viewBox="0 0 100 100" fill="none" xmlns="http://www.w3.org/2000/svg">
<g id="Icons">
<path id="Vector" fill-rule="evenodd" clip-rule="evenodd" d="M91.9643 21.4286H8.03571C5.07704 21.4286 2.67857 23.8271 2.67857 26.7857V73.2143C2.67857 76.1729 5.07704 78.5714 8.03571 78.5714H91.9643C94.9232 78.5714 97.3214 76.1729 97.3214 73.2143V26.7857C97.3214 23.8271 94.9232 21.4286 91.9643 21.4286ZM8.03571 18.75C3.59771 18.75 0 22.3477 0 26.7857V73.2143C0 77.6523 3.59771 81.25 8.03571 81.25H91.9643C96.4027 81.25 100 77.6523 100 73.2143V26.7857C100 22.3477 96.4027 18.75 91.9643 18.75H8.03571Z" fill="#1D2939"/>
<path id="Vector_2" d="M34.8218 61.6072H1.78613V64.2857H34.8218V61.6072Z" fill="#1D2939"/>
<path id="Vector_3" d="M34.8218 61.6072H1.78613V64.2857H34.8218V61.6072Z" fill="#1D2939"/>
<path id="Vector_4" d="M99.107 61.6072H66.0713V64.2857H99.107V61.6072Z" fill="#1D2939"/>
<path id="Vector_5" d="M99.107 61.6072H66.0713V64.2857H99.107V61.6072Z" fill="#1D2939"/>
<path id="Vector_6" fill-rule="evenodd" clip-rule="evenodd" d="M66.0718 41.1591H57.6375C58.4421 40.8068 59.2232 40.4042 59.9771 39.9538C61.0795 39.2924 61.9472 37.8087 62.1367 36.2736C62.3094 34.872 61.9088 33.6041 61.0092 32.6981C58.8806 30.5696 55.4661 30.9998 53.5246 32.6184C52.284 33.652 50.7337 35.717 49.3616 38.0861C47.9885 35.7145 46.4383 33.6514 45.1985 32.6184C43.256 30.9997 39.8425 30.5696 37.714 32.6981C36.8143 33.5978 36.4127 34.8661 36.5855 36.2736C36.775 37.8136 37.6436 39.2924 38.746 39.9538C39.5 40.4042 40.282 40.8068 41.086 41.1591H33.038L33.0361 68.7347H66.0706L66.0718 41.1591ZM48.1131 45.4541C46.0036 48.2525 43.3589 50.91 43.2028 51.0651L41.3508 49.2122C41.3877 49.1753 44.0916 46.46 46.0976 43.7822H35.6587V66.1126H48.1131V45.4541ZM55.5101 51.0607C55.2955 50.8449 52.7927 48.3274 50.7351 45.6244L50.7357 66.1122H63.4493V43.7818H52.6255C54.631 46.4596 57.3353 49.1747 57.3723 49.2116L55.5178 51.0685L55.5101 51.0607ZM51.1471 40.2671C53.7863 39.9346 56.3285 39.0647 58.6184 37.7106C58.9293 37.5226 59.4205 36.8095 59.5254 35.9576C59.5756 35.5452 59.5519 34.9684 59.1454 34.5634C58.666 34.1032 58.0218 33.8547 57.3579 33.8734C56.571 33.8763 55.8092 34.148 55.1975 34.6431C54.1894 35.4877 52.591 37.5862 51.1471 40.2671ZM40.0885 37.7107C42.3809 39.0675 44.9268 39.9391 47.5696 40.2708L47.5757 40.2675C46.1312 37.5848 44.5318 35.4848 43.5115 34.6398C42.9002 34.1447 42.1384 33.8735 41.3519 33.8701C40.6879 33.8513 40.0443 34.0999 39.5643 34.5601C39.1593 34.9651 39.1343 35.5419 39.1854 35.9543C39.2927 36.8052 39.7814 37.5203 40.0885 37.7107Z" fill="#1D2939"/>
</g>
</svg>
