<svg width="100" height="100" viewBox="0 0 100 100" fill="none" xmlns="http://www.w3.org/2000/svg">
<g id="Icons">
<path id="Vector" fill-rule="evenodd" clip-rule="evenodd" d="M22.0025 66.5628C21.8509 74.934 28.5112 81.8452 36.8825 82.0028H63.1224C71.494 81.8452 78.154 74.934 78.0024 66.5628L76.2544 47.8108C75.8108 40.7412 70.864 34.7621 64.0024 33.0026C62.5728 32.5867 61.0916 32.3739 59.6024 32.3706H40.4024C38.9135 32.3739 37.4323 32.5867 36.0025 33.0026C29.1455 34.7627 24.2011 40.7373 23.7545 47.8028L22.0025 66.5628Z" stroke="#1D2939" stroke-width="4" stroke-linecap="round" stroke-linejoin="round"/>
<path id="Vector_2" d="M64.0019 39.5545V31.4705C63.8511 23.8872 57.5855 17.8597 50.0019 18.0025C42.4183 17.8597 36.1529 23.8872 36.002 31.4705V39.5505" stroke="#1D2939" stroke-width="4" stroke-linecap="round" stroke-linejoin="round"/>
</g>
</svg>
