<svg width="100" height="100" viewBox="0 0 100 100" fill="none" xmlns="http://www.w3.org/2000/svg">
<g id="Icons">
<path id="Vector" d="M33.875 65.9687H58.0781C58.7743 65.9687 59.442 65.6921 59.9343 65.1998C60.4266 64.7076 60.7031 64.0399 60.7031 63.3437L69.8437 29.8749C69.8438 29.5276 69.7749 29.1837 69.641 28.8631C69.5071 28.5426 69.311 28.2518 69.0639 28.0076C68.8168 27.7635 68.5237 27.5708 68.2016 27.4407C67.8795 27.3106 67.5348 27.2458 67.1875 27.2499H27.5156C26.818 27.2499 26.1487 27.526 25.6539 28.0178C25.1592 28.5097 24.8791 29.1773 24.875 29.8749L17.0625 63.3437C17.0625 64.0399 17.3391 64.7076 17.8313 65.1998C18.3236 65.6921 18.9913 65.9687 19.6875 65.9687H23.0937" stroke="#1D2939" stroke-width="3"/>
<path id="Vector_2" d="M65.0938 65.9688H59.6719L67.4844 38.9531H80.3281C80.5213 38.9527 80.7123 38.9944 80.8877 39.0754C81.0631 39.1563 81.2187 39.2746 81.3438 39.4219L86.9375 49.2656C87.1379 49.4951 87.2489 49.7891 87.25 50.0938L82.0469 65.9688H76.4219" stroke="#1D2939" stroke-width="3"/>
<path id="Vector_3" d="M28.6094 73.5469C31.8109 73.5469 34.4062 70.9166 34.4062 67.6719C34.4062 64.4272 31.8109 61.7969 28.6094 61.7969C25.4078 61.7969 22.8125 64.4272 22.8125 67.6719C22.8125 70.9166 25.4078 73.5469 28.6094 73.5469Z" stroke="#1D2939" stroke-width="3"/>
<path id="Vector_4" d="M70.8594 73.5469C74.0609 73.5469 76.6563 70.9166 76.6563 67.6719C76.6563 64.4272 74.0609 61.7969 70.8594 61.7969C67.6578 61.7969 65.0625 64.4272 65.0625 67.6719C65.0625 70.9166 67.6578 73.5469 70.8594 73.5469Z" stroke="#1D2939" stroke-width="3"/>
<path id="Vector_5" d="M36.3281 34.9375H10.7344" stroke="#1D2939" stroke-width="3" stroke-linecap="round"/>
<path id="Vector_6" d="M31.2813 43.125H13.2031" stroke="#1D2939" stroke-width="3" stroke-linecap="round"/>
<path id="Vector_7" d="M33.1094 52.3438H5.01562" stroke="#1D2939" stroke-width="3" stroke-linecap="round"/>
</g>
</svg>
