<svg width="61" height="28" viewBox="0 0 61 28" fill="none" xmlns="http://www.w3.org/2000/svg">
<g clip-path="url(#clip0_63_8542)">
<path d="M28.8496 14.4779V21.3126H26.5996V4.40967H32.4496C33.8746 4.40967 35.2246 4.9241 36.2746 5.87948C37.3246 6.76137 37.8496 8.08421 37.8496 9.48053C37.8496 10.8769 37.3246 12.1262 36.2746 13.0816C35.2246 14.037 33.9496 14.5514 32.4496 14.5514L28.8496 14.4779ZM28.8496 6.46741V12.3467H32.5996C33.4246 12.3467 34.2496 12.0527 34.7746 11.4648C35.9746 10.3624 35.9746 8.52515 34.8496 7.42279L34.7746 7.3493C34.1746 6.76137 33.4246 6.39392 32.5996 6.46741H28.8496Z" fill="white"/>
<path d="M43.0246 9.40674C44.6746 9.40674 45.9496 9.84768 46.9246 10.7296C47.8996 11.6115 48.3496 12.7873 48.3496 14.2571V21.3123H46.2496V19.6955H46.1746C45.2746 21.0183 43.9996 21.6797 42.4996 21.6797C41.2246 21.6797 40.0996 21.3122 39.1996 20.5773C38.3746 19.8424 37.8496 18.8136 37.8496 17.7112C37.8496 16.5353 38.2996 15.58 39.1996 14.8451C40.0996 14.1102 41.3746 13.8162 42.8746 13.8162C44.2246 13.8162 45.2746 14.0367 46.0996 14.5511V14.0367C46.0996 13.3018 45.7996 12.5668 45.1996 12.1259C44.5996 11.6115 43.8496 11.3175 43.0246 11.3175C41.7496 11.3175 40.7746 11.8319 40.0996 12.8608L38.1496 11.685C39.3496 10.1416 40.9246 9.40674 43.0246 9.40674ZM40.1746 17.7847C40.1746 18.3726 40.4746 18.8871 40.9246 19.181C41.4496 19.5485 42.0496 19.7689 42.6496 19.7689C43.5496 19.7689 44.4496 19.4015 45.1246 18.7401C45.8746 18.0787 46.2496 17.2703 46.2496 16.3884C45.5746 15.8739 44.5996 15.58 43.3246 15.58C42.4246 15.58 41.6746 15.8004 41.0746 16.2414C40.4746 16.6088 40.1746 17.1233 40.1746 17.7847Z" fill="white"/>
<path d="M60.4996 9.77441L53.0746 26.4568H50.8246L53.5996 20.6511L48.7246 9.8479H51.1246L54.6496 18.1524H54.7246L58.1746 9.8479H60.4996V9.77441Z" fill="white"/>
<path d="M19.9254 13.0077C19.9254 12.3463 19.8504 11.6849 19.7754 11.0234H10.4004V14.7715H15.7254C15.5004 15.9473 14.8254 17.0497 13.7754 17.7111V20.1363H17.0004C18.8754 18.446 19.9254 15.9473 19.9254 13.0077Z" fill="#4285F4"/>
<path d="M10.4008 22.488C13.1008 22.488 15.3508 21.6061 17.0008 20.1363L13.7758 17.7111C12.8758 18.2991 11.7508 18.6665 10.4008 18.6665C7.85078 18.6665 5.60078 16.9762 4.85078 14.6245H1.55078V17.1232C3.27578 20.4303 6.65078 22.488 10.4008 22.488Z" fill="#34A853"/>
<path d="M4.84922 14.6246C4.39922 13.4488 4.39922 12.126 4.84922 10.8766V8.37793H1.54922C0.124219 11.0971 0.124219 14.3307 1.54922 17.1233L4.84922 14.6246Z" fill="#FBBC04"/>
<path d="M10.4 6.908C11.825 6.908 13.175 7.42243 14.225 8.37781L17.075 5.58516C15.275 3.96836 12.875 3.01298 10.475 3.08647C6.725 3.08647 3.275 5.14422 1.625 8.4513L4.925 10.95C5.6 8.59828 7.85 6.908 10.4 6.908Z" fill="#EA4335"/>
</g>
<defs>
<clipPath id="clip0_63_8542">
<rect width="60" height="28" fill="white" transform="translate(0.5)"/>
</clipPath>
</defs>
</svg>
