<svg width="100" height="100" viewBox="0 0 100 100" fill="none" xmlns="http://www.w3.org/2000/svg">
<path d="M14.1563 39.0624C12 27.0312 19.9688 16.6093 32.3906 15.6249C43.3281 14.7656 48.75 28.0156 49.8438 30.5468C49.8559 30.5893 49.8815 30.6266 49.9167 30.6532C49.952 30.6798 49.9949 30.6942 50.0391 30.6942C50.0832 30.6942 50.1262 30.6798 50.1614 30.6532C50.1966 30.6266 50.2223 30.5893 50.2344 30.5468C55.3125 16.6249 64.5625 16.0312 67.8125 15.7031C76.5625 14.7656 88.2969 21.5312 85.9375 37.2968C82.5625 59.1718 49.8125 83.8749 49.8125 83.8749C49.8125 83.8749 18.4219 62.5781 14.1563 39.0624Z" stroke="#1D2939" stroke-width="3"/>
</svg>
