<svg width="156" height="150" viewBox="0 0 156 150" fill="none" xmlns="http://www.w3.org/2000/svg">
<g id="Group 33700">
<path id="Vector" d="M43.6677 40.6393C44.7353 40.5303 46.3641 40.4122 47.3027 40.3668C48.2415 40.3304 49.5666 40.2941 50.266 40.3031C50.9563 40.3123 51.5452 40.3395 51.5636 40.3668C51.5913 40.394 51.5361 40.921 51.444 41.5479C51.3428 42.1748 51.1771 43.5012 51.0759 44.5006C50.9838 45.5 50.855 47.0263 50.7998 47.8804C50.7538 48.7435 50.7078 50.8331 50.7078 52.5139C50.7078 54.2038 50.7538 56.2752 50.7998 57.1293C50.855 57.9833 50.9563 59.3642 51.0299 60.2182C51.1127 61.0723 51.2784 62.5804 51.4072 63.5798C51.5361 64.5792 51.7844 66.1964 51.9593 67.1685C52.1342 68.1407 52.4379 69.6761 52.6404 70.5756C52.8428 71.475 53.211 72.9741 53.4685 73.9099C53.717 74.8548 54.1496 76.3266 54.4256 77.1806C54.7017 78.0438 55.1987 79.4701 55.5208 80.3423C55.8429 81.2146 56.3674 82.5229 56.6711 83.2496C56.9747 83.9764 57.5545 85.2575 57.9502 86.1115C58.3459 86.9656 59.0638 88.3738 59.5331 89.246C60.0117 90.1181 60.7939 91.4901 61.2817 92.2896C61.7602 93.0891 62.616 94.4155 63.1774 95.2423C63.7388 96.0691 64.6222 97.3137 65.1559 98.0133C65.6897 98.7129 66.5087 99.7577 66.9873 100.33C67.4658 100.902 68.2757 101.847 68.7818 102.42C69.2971 102.992 70.4106 104.173 71.2758 105.045C72.1316 105.909 73.42 107.144 74.1286 107.78C74.8372 108.416 75.9783 109.397 76.6593 109.961C77.3403 110.524 78.7299 111.596 79.7422 112.35C80.7545 113.095 82.3926 114.24 83.3772 114.894C84.3619 115.539 85.9171 116.502 86.8282 117.038C87.7393 117.574 88.8896 118.237 89.3866 118.51C89.8835 118.782 90.2793 119.045 90.2793 119.091C90.2793 119.137 90.1596 119.327 90.0308 119.5C89.9077 119.654 89.5579 120.075 89.2161 120.486L89.0921 120.636C88.7055 121.09 87.8313 122.026 87.1503 122.716C86.4693 123.407 85.4939 124.352 84.9877 124.806C84.4723 125.26 83.5613 126.024 82.9631 126.504C82.3557 126.977 81.3618 127.722 80.7545 128.149C80.1471 128.576 79.1901 129.212 78.6378 129.557C78.0857 129.902 77.0458 130.512 76.3372 130.903C75.6286 131.303 74.4691 131.892 73.7604 132.229C73.0518 132.565 71.9108 133.073 71.2297 133.355C70.5488 133.637 69.1407 134.154 68.1008 134.491C67.0609 134.836 65.6345 135.263 64.9259 135.436C64.2173 135.618 63.1222 135.863 62.4871 135.99C61.8521 136.117 60.8399 136.281 60.2326 136.363C59.5976 136.445 57.9502 136.526 56.3674 136.553C54.6005 136.59 53.0913 136.563 52.1801 136.498C51.3979 136.435 50.2752 136.326 49.6955 136.254C49.1157 136.181 48.039 136.018 47.3027 135.89C46.5666 135.754 45.269 135.473 44.404 135.263C43.539 135.046 42.1585 134.646 41.321 134.373C40.4836 134.1 39.2873 133.674 38.6523 133.419C38.0173 133.174 36.959 132.719 36.3056 132.42C35.6522 132.128 34.5479 131.583 33.867 131.221C33.1859 130.857 32.2104 130.312 31.7043 130.012C31.1981 129.712 30.287 129.14 29.6797 128.73C29.0723 128.332 28.014 127.586 27.333 127.078C26.652 126.569 25.695 125.824 25.2164 125.424C24.7379 125.033 23.744 124.16 23.0169 123.489C22.2807 122.816 21.0936 121.635 20.3758 120.863C19.658 120.091 18.6734 118.982 18.1948 118.41C17.7254 117.837 16.9893 116.911 16.5659 116.366C16.1518 115.821 15.2959 114.612 14.6794 113.686C14.0535 112.759 13.1701 111.351 12.71 110.551C12.2406 109.752 11.4952 108.361 11.0535 107.462C10.6026 106.563 9.99519 105.273 9.70991 104.6C9.41542 103.928 8.93689 102.719 8.6332 101.92C8.32951 101.121 7.86017 99.7305 7.5933 98.831C7.32641 97.9316 6.9491 96.5233 6.76505 95.6965C6.581 94.8698 6.30492 93.4979 6.16688 92.653C6.01964 91.808 5.83559 90.5361 5.76197 89.8365C5.67914 89.1369 5.57791 87.974 5.5227 87.2471C5.47669 86.5204 5.43066 84.9304 5.43066 83.7039C5.43066 82.4774 5.47669 80.8874 5.5227 80.1607C5.57791 79.4338 5.67914 78.2709 5.76197 77.5713C5.84479 76.8717 6.00123 75.7088 6.12087 74.982C6.2405 74.2551 6.45217 73.1558 6.581 72.5289C6.70983 71.9021 6.96751 70.839 7.15157 70.1667C7.32641 69.4945 7.67612 68.3042 7.93379 67.532C8.18226 66.7597 8.6608 65.4514 8.9921 64.6247C9.32339 63.798 9.87555 62.5532 10.2069 61.8537C10.5473 61.1541 11.1271 60.0457 11.4952 59.4006C11.8725 58.7555 12.5259 57.6835 12.9584 57.0384C13.3818 56.3933 13.9891 55.5302 14.2928 55.1305C14.5966 54.7307 15.2408 53.9312 15.7284 53.3588C16.2069 52.7865 17.1457 51.778 17.8082 51.1329C18.4616 50.4788 19.4556 49.5884 20.0169 49.1523C20.5783 48.7162 21.4801 48.053 22.0414 47.6895C22.6028 47.3171 23.4311 46.8083 23.882 46.5357C24.333 46.2722 25.3913 45.7271 26.2287 45.3183C27.0662 44.9185 28.1428 44.428 28.6214 44.2372C29.0999 44.0464 29.9926 43.7102 30.5999 43.4922C31.2074 43.265 32.2473 42.9289 32.9007 42.729C33.554 42.5382 34.6123 42.2474 35.2473 42.093C35.8822 41.9385 36.867 41.7115 37.4283 41.5842C37.9989 41.4661 39.2045 41.248 40.0972 41.1028C40.9989 40.9574 42.6002 40.7483 43.6677 40.6393Z" fill="url(#paint0_linear_0_7292)"/>
<path id="Vector_2" d="M70.8647 0.269961C71.8243 0.191133 73.2203 0.0947874 73.9618 0.0509941C74.7034 0.00720086 77.0065 -0.0103164 79.0654 0.00720105C81.1242 0.0247185 83.4013 0.0860292 84.1252 0.138581C84.8407 0.191133 86.2365 0.313754 87.2223 0.4101C88.2082 0.506445 89.8571 0.707894 90.8865 0.848033C91.9159 0.996931 93.4077 1.23341 94.2016 1.37355C94.9955 1.51369 96.2866 1.77645 97.0805 1.94287C97.8744 2.11804 99.1482 2.40708 99.9159 2.59976C100.684 2.79246 101.983 3.14281 102.795 3.37928C103.606 3.61577 104.906 4.00991 105.674 4.25515C106.441 4.50916 107.898 5.01716 108.902 5.39377C109.905 5.7704 111.379 6.35723 112.173 6.69006C112.967 7.03165 114.319 7.63599 115.183 8.04766C116.047 8.45056 117.442 9.15125 118.28 9.59794C119.117 10.0446 120.374 10.7453 121.071 11.157C121.77 11.5686 122.921 12.278 123.646 12.7423C124.361 13.2066 125.425 13.916 126.001 14.3188C126.576 14.7218 127.58 15.4575 128.226 15.9567C128.871 16.4472 129.952 17.3143 130.624 17.8749C131.296 18.4354 132.37 19.3726 133.015 19.9594C133.661 20.5463 134.873 21.7375 135.711 22.6046C136.548 23.4717 137.795 24.8118 138.467 25.5913C139.148 26.362 140.073 27.4656 140.535 28.0436C140.998 28.613 141.721 29.559 142.157 30.137C142.585 30.7151 143.353 31.8012 143.85 32.5457C144.356 33.2902 145.036 34.3762 145.385 34.9543C145.726 35.5324 146.267 36.4958 146.589 37.1001C146.912 37.7045 147.409 38.7117 147.698 39.3336C147.986 39.9554 148.43 41.0065 148.683 41.6546C148.936 42.3028 149.285 43.2663 149.451 43.8006C149.626 44.3348 149.887 45.2545 150.035 45.8588C150.184 46.4631 150.402 47.5055 150.516 48.1799C150.629 48.8542 150.768 49.9578 150.83 50.6323C150.89 51.368 150.908 52.4804 150.882 53.3912C150.847 54.2321 150.768 55.3182 150.699 55.7999C150.629 56.2817 150.507 56.9735 150.428 57.3326C150.349 57.6917 150.175 58.3837 150.035 58.8654C149.897 59.3472 149.599 60.1967 149.381 60.7485C149.163 61.3003 148.779 62.1323 148.535 62.5878C148.299 63.0433 147.811 63.8579 147.471 64.3834C147.121 64.9088 146.546 65.6972 146.188 66.1352C145.822 66.5731 145.142 67.3088 144.662 67.7817C144.191 68.2635 143.423 68.9554 142.969 69.3233C142.516 69.6911 141.635 70.3305 141.006 70.7509C140.378 71.1626 139.436 71.7407 138.912 72.0209C138.389 72.31 137.542 72.7303 137.037 72.9669C136.531 73.1946 135.685 73.5537 135.161 73.7551C134.637 73.9565 133.827 74.2456 133.373 74.3945C132.919 74.5434 132.169 74.7623 131.715 74.8938C131.261 75.0252 130.398 75.2354 129.796 75.3755C129.194 75.5156 127.981 75.7434 127.091 75.8923C126.202 76.0412 124.884 76.225 124.168 76.2951C123.445 76.3653 122.189 76.4616 121.377 76.5141C120.566 76.5579 119.109 76.6017 118.149 76.6017C117.19 76.6017 115.663 76.5579 114.747 76.5141C113.831 76.4616 112.461 76.3653 111.693 76.2951C110.926 76.2164 109.687 76.0849 108.945 75.9887C108.204 75.8923 107.139 75.7346 106.59 75.6382C106.04 75.5332 105.194 75.3579 104.714 75.2354C104.234 75.1128 103.51 74.9112 103.1 74.7887C102.69 74.6661 101.922 74.3945 101.399 74.193C100.876 73.9916 100.029 73.6238 99.5232 73.3785C99.0173 73.1333 98.2321 72.7041 97.7785 72.4325C97.3248 72.1523 96.6182 71.688 96.2081 71.399C95.7981 71.11 95.1176 70.5758 94.6814 70.2167C94.2452 69.8576 93.3466 69.0079 92.6749 68.3335C92.0031 67.6504 90.9824 66.5292 90.3979 65.8286C89.8221 65.1278 88.8188 63.8667 88.1732 63.017C87.5277 62.1674 86.1929 60.372 85.1984 59.0318C84.2039 57.683 83.0785 56.2116 82.6858 55.7561C82.2932 55.3006 81.4208 54.3547 80.7404 53.6627C80.0599 52.9708 79.109 52.0599 78.6292 51.6483C78.1494 51.2279 77.3641 50.5885 76.8843 50.2293C76.4045 49.8616 75.5409 49.2484 74.965 48.863C74.3892 48.4776 73.5081 47.9258 73.0021 47.6368C72.4962 47.3478 71.615 46.8661 71.0392 46.577C70.4634 46.2879 69.4601 45.8326 68.8145 45.5523C68.169 45.2807 67.0086 44.8428 66.241 44.5801C65.4733 44.3172 64.2781 43.9407 63.5801 43.7479C62.8822 43.5553 61.5475 43.2487 60.6139 43.0561C59.6804 42.8721 58.3457 42.6357 57.6478 42.5393C56.9498 42.4429 55.6761 42.3028 54.8125 42.2327C53.9487 42.1626 52.5005 42.0575 51.5845 42.005C50.3893 41.9349 49.3075 41.9349 47.7023 42.005C46.481 42.0575 44.71 42.1714 43.7765 42.2678C42.843 42.3641 41.4472 42.5481 40.6794 42.6706C39.9117 42.7932 38.8125 42.9948 38.2367 43.1173C37.661 43.2312 36.6402 43.4677 35.9685 43.6341C35.2967 43.8092 34.2323 44.0983 33.613 44.2822C32.9935 44.4749 32.0078 44.799 31.4319 45.018C30.8561 45.2282 30.01 45.5523 29.5563 45.7362C29.1026 45.9201 28.0819 46.3931 27.288 46.7785C26.4941 47.1726 25.4908 47.6981 25.0634 47.9522C24.6272 48.2149 23.842 48.7053 23.3185 49.0644C22.7864 49.4149 21.9227 50.0542 21.3992 50.4746C20.8671 50.895 19.9249 51.7534 19.3055 52.384C18.6773 53.0058 17.7875 53.9781 17.3339 54.5299C16.8714 55.0817 16.2607 55.8524 15.9729 56.2378C15.685 56.6232 15.1092 57.4552 14.7079 58.0771C14.2978 58.6989 13.6785 59.7325 13.3208 60.3544C12.9719 60.9762 12.4222 62.0449 12.0994 62.7192C11.7854 63.3936 11.2619 64.5936 10.9478 65.3906C10.6338 66.1877 10.1801 67.449 9.94457 68.1933C9.7003 68.9379 9.36877 70.0852 9.20302 70.7335C9.02854 71.3816 8.78426 72.4063 8.66213 73.0106C8.53999 73.615 8.33934 74.6749 8.22593 75.3755C8.11252 76.0761 7.96421 77.1973 7.88568 77.8717C7.80717 78.5462 7.71121 79.6672 7.65886 80.368C7.61524 81.0686 7.57162 82.6014 7.57162 83.7838C7.57162 84.9663 7.61524 86.499 7.65886 87.1997C7.71121 87.9003 7.80717 89.0215 7.88568 89.6959C7.95548 90.3704 8.12996 91.5966 8.26955 92.4111C8.40041 93.2257 8.66213 94.5482 8.83661 95.3452C9.0111 96.1423 9.36877 97.4999 9.62177 98.367C9.87477 99.2341 10.3197 100.574 10.6076 101.345C10.8955 102.116 11.3491 103.281 11.6283 103.929C11.8988 104.577 12.4746 105.821 12.902 106.688C13.3208 107.555 14.0274 108.895 14.4723 109.666C14.9085 110.436 15.746 111.794 16.3394 112.687C16.9238 113.581 17.7352 114.746 18.1278 115.271C18.5291 115.797 19.2269 116.69 19.6719 117.242C20.1255 117.793 21.059 118.862 21.7395 119.606C22.42 120.351 23.5454 121.489 24.2433 122.137C24.9325 122.787 25.8748 123.626 26.3283 124.003C26.782 124.389 27.6893 125.107 28.3349 125.597C28.9805 126.089 29.9837 126.807 30.5596 127.192C31.1353 127.586 31.999 128.138 32.4788 128.427C32.9587 128.716 33.8834 129.241 34.529 129.592C35.1746 129.942 36.2215 130.468 36.8409 130.748C37.4603 131.036 38.4636 131.475 39.0655 131.711C39.6675 131.957 40.8016 132.368 41.5954 132.631C42.3894 132.894 43.698 133.279 44.5181 133.489C45.3381 133.691 46.5681 133.962 47.2661 134.094C47.9641 134.216 48.9847 134.374 49.5343 134.444C50.084 134.514 51.1483 134.619 51.8899 134.68C52.7535 134.742 54.1843 134.768 55.8594 134.733C57.3598 134.707 58.9214 134.627 59.5234 134.549C60.0992 134.471 61.0589 134.313 61.6608 134.19C62.2628 134.067 63.301 133.831 63.9727 133.655C64.6444 133.489 65.9967 133.078 66.9825 132.744C67.9684 132.42 69.3031 131.922 69.9487 131.649C70.5943 131.378 71.6761 130.888 72.3478 130.564C73.0196 130.24 74.1188 129.67 74.7905 129.285C75.4623 128.909 76.4481 128.322 76.9716 127.988C77.495 127.656 78.4023 127.043 78.9781 126.631C79.5538 126.22 80.4961 125.502 81.0719 125.045C81.639 124.582 82.5026 123.846 82.9912 123.408C83.471 122.97 84.3958 122.059 85.0414 121.394C85.6868 120.728 86.5157 119.826 86.8821 119.388C87.2485 118.95 87.9726 117.986 88.496 117.242C89.0282 116.497 89.7087 115.473 90.0315 114.965C90.3455 114.457 90.8341 113.607 91.122 113.082C91.4099 112.556 91.8549 111.645 92.1253 111.067C92.3869 110.489 92.7883 109.543 93.0064 108.965C93.2244 108.387 93.5647 107.362 93.7566 106.688C93.9573 106.013 94.2365 104.892 94.3761 104.191C94.5156 103.491 94.6989 102.431 94.7687 101.827C94.8472 101.222 94.9344 99.9261 94.9606 98.9363C94.9955 97.8414 94.9693 96.6328 94.9082 95.827C94.8472 95.1088 94.7425 94.1453 94.6727 93.7074C94.6029 93.2607 94.568 92.8491 94.5941 92.8052C94.6204 92.7527 95.2485 93.0067 96.0075 93.3658C96.7665 93.7162 98.0576 94.2767 98.869 94.6008C99.6803 94.9248 101.041 95.4154 101.879 95.6956C102.716 95.9759 104.13 96.4051 105.019 96.6503C105.909 96.8955 107.261 97.2284 108.029 97.3947C108.797 97.5612 110.01 97.8065 110.734 97.9291C111.449 98.0516 112.67 98.2269 113.438 98.3232C114.206 98.4107 115.384 98.5422 116.055 98.5947C116.727 98.656 118.498 98.6999 119.982 98.7085C121.464 98.7085 123.235 98.656 123.907 98.5947C124.579 98.5334 125.713 98.4108 126.438 98.3232C127.153 98.2269 128.295 98.0516 128.967 97.9291C129.639 97.8065 130.895 97.5262 131.758 97.3159C132.623 97.1057 133.957 96.7292 134.725 96.4751C135.493 96.2298 136.749 95.7831 137.517 95.4767C138.284 95.1789 139.463 94.6709 140.133 94.3643C140.805 94.0489 141.922 93.4884 142.62 93.1118C143.318 92.7351 144.391 92.1133 145.019 91.7279C145.648 91.3513 146.589 90.7382 147.113 90.3704C147.637 90.0113 148.605 89.3105 149.25 88.8113C149.897 88.3208 150.995 87.4274 151.693 86.8318C152.391 86.2362 153.403 85.3166 153.943 84.7823C154.607 84.1429 154.956 83.8539 155.017 83.9152C155.079 83.9765 154.974 84.4757 154.703 85.448C154.477 86.245 153.996 87.8041 153.639 88.9077C153.281 90.0199 152.671 91.7717 152.287 92.8052C151.903 93.8388 151.179 95.6518 150.672 96.8342C150.175 98.0167 149.198 100.119 148.509 101.52C147.82 102.922 146.895 104.708 146.45 105.505C146.014 106.302 145.29 107.546 144.863 108.264C144.426 108.991 143.562 110.366 142.934 111.33C142.297 112.293 141.372 113.651 140.875 114.352C140.378 115.052 139.663 116.033 139.27 116.541C138.886 117.049 138.093 118.056 137.507 118.775C136.932 119.502 135.868 120.763 135.152 121.577C134.437 122.392 132.989 123.951 131.933 125.028C130.878 126.106 129.403 127.543 128.662 128.226C127.92 128.909 126.899 129.819 126.393 130.257C125.887 130.695 124.971 131.466 124.343 131.965C123.715 132.473 122.738 133.236 122.162 133.673C121.587 134.112 120.522 134.881 119.807 135.39C119.082 135.898 118.045 136.608 117.495 136.967C116.945 137.326 115.846 138.017 115.052 138.499C114.258 138.981 113.019 139.699 112.304 140.102C111.58 140.505 110.036 141.311 108.858 141.897C107.68 142.476 105.874 143.316 104.845 143.755C103.815 144.192 102.69 144.656 102.359 144.787C102.027 144.92 101.041 145.279 100.178 145.585C99.3139 145.9 97.7785 146.409 96.7752 146.715C95.7719 147.022 94.158 147.468 93.1983 147.705C92.2387 147.95 90.8602 148.274 90.1449 148.423C89.4208 148.571 88.1732 148.808 87.3532 148.948C86.5331 149.088 85.2594 149.281 84.5179 149.377C83.7763 149.483 82.52 149.623 81.7261 149.693C80.9323 149.763 79.6237 149.859 78.8036 149.912C77.9836 149.955 76.2213 150 74.8778 150C73.5343 150 71.7721 149.955 70.952 149.912C70.132 149.867 68.8233 149.763 68.0294 149.684C67.2355 149.614 65.9792 149.474 65.2377 149.377C64.4961 149.281 63.0828 149.071 62.097 148.895C61.1113 148.729 59.8375 148.493 59.2617 148.37C58.6859 148.247 57.3686 147.933 56.3392 147.67C55.3097 147.416 53.7393 146.977 52.8496 146.706C51.9597 146.434 50.6249 145.997 49.8834 145.734C49.1418 145.471 47.9815 145.033 47.3098 144.77C46.638 144.508 45.4602 144.008 44.6925 143.675C43.9248 143.333 42.4155 142.615 41.3338 142.064C40.252 141.52 38.7428 140.706 37.975 140.269C37.2073 139.83 35.9161 139.042 35.0961 138.525C34.276 138 32.9063 137.071 32.0427 136.45C31.1789 135.837 29.9401 134.908 29.2945 134.401C28.6489 133.884 27.6283 133.043 27.0263 132.526C26.4243 132.009 25.2902 130.993 24.5051 130.266C23.7198 129.53 22.481 128.304 21.7569 127.533C21.0328 126.762 20.0034 125.633 19.4799 125.028C18.9478 124.424 18.1451 123.46 17.6828 122.883C17.2205 122.313 16.4353 121.288 15.9293 120.615C15.4232 119.94 14.5596 118.714 14.01 117.899C13.4517 117.084 12.6491 115.841 12.2216 115.14C11.7853 114.439 11.0438 113.16 10.564 112.293C10.0842 111.426 9.39495 110.121 9.02854 109.403C8.67085 108.685 8.07761 107.415 7.70248 106.6C7.33607 105.786 6.70794 104.279 6.30663 103.272C5.90532 102.265 5.33826 100.723 5.04164 99.856C4.75375 98.9889 4.3001 97.5524 4.03837 96.659C3.77665 95.7657 3.38406 94.3118 3.16597 93.4184C2.94786 92.525 2.6338 91.1061 2.45932 90.2652C2.29356 89.4244 2.05801 88.1368 1.9446 87.4187C1.83119 86.7005 1.6567 85.4743 1.56074 84.7035C1.46477 83.9327 1.32519 82.6102 1.24667 81.7693C1.17688 80.9285 1.07219 79.2468 1.01985 78.0468C0.967504 76.847 0.950056 74.9726 0.984952 73.8865C1.01112 72.8004 1.07219 71.3027 1.12454 70.5582C1.16816 69.8137 1.29029 68.4299 1.38626 67.4927C1.48222 66.5555 1.65671 65.1192 1.77884 64.2958C1.90098 63.4725 2.15397 62.001 2.3459 61.0113C2.53784 60.0215 2.8519 58.5676 3.04383 57.7706C3.23577 56.9735 3.60217 55.5809 3.8639 54.6613C4.12562 53.7416 4.59672 52.2263 4.9195 51.2892C5.23357 50.352 5.71339 49.0294 5.96639 48.355C6.22812 47.6806 6.74284 46.4194 7.10924 45.5523C7.48439 44.6851 8.27828 42.9684 8.88895 41.7423C9.49964 40.516 10.4069 38.7993 10.9042 37.9322C11.4015 37.0651 12.0645 35.944 12.3786 35.436C12.6927 34.928 13.7221 33.3515 14.6556 31.9325C15.5978 30.5136 16.8278 28.7181 17.4036 27.9474C17.9707 27.1765 18.9391 25.9504 19.5411 25.2322C20.143 24.514 21.1986 23.3052 21.8965 22.5607C22.5858 21.8163 23.7024 20.6864 24.3742 20.0558C25.0373 19.4251 25.9184 18.6106 26.3283 18.2602C26.7384 17.9011 27.4276 17.3143 27.855 16.9552C28.2826 16.5961 29.3556 15.7553 30.228 15.0984C31.1091 14.4327 32.5574 13.3992 33.456 12.8036C34.3632 12.2168 35.6282 11.411 36.2738 11.0256C36.9194 10.6402 37.879 10.0884 38.4112 9.79939C38.9434 9.51035 40.095 8.906 40.9848 8.45931C41.8747 8.01261 43.1658 7.39076 43.8638 7.0842C44.5617 6.76889 45.9576 6.19082 46.9608 5.78791C47.9641 5.38501 49.4384 4.83322 50.2323 4.5617C51.0262 4.29018 52.3174 3.86977 53.1112 3.63328C53.9051 3.38804 55.4581 2.95887 56.5572 2.67859C57.6565 2.38956 59.3054 2.00418 60.2214 1.81149C61.1374 1.61879 62.7251 1.321 63.7546 1.15459C64.784 0.979411 66.4154 0.742929 67.3751 0.629066C68.3347 0.506445 69.905 0.348789 70.8647 0.269961Z" fill="url(#paint1_linear_0_7292)"/>
</g>
<defs>
<linearGradient id="paint0_linear_0_7292" x1="33.3414" y1="69.406" x2="116.695" y2="136.52" gradientUnits="userSpaceOnUse">
<stop stop-color="#3C046B"/>
<stop offset="0.734375" stop-color="#CB89FF"/>
</linearGradient>
<linearGradient id="paint1_linear_0_7292" x1="78.0004" y1="0.000488685" x2="78.0004" y2="163.36" gradientUnits="userSpaceOnUse">
<stop stop-color="#9504A2"/>
<stop offset="1" stop-color="#8200ED"/>
</linearGradient>
</defs>
</svg>
