<svg width="37" height="26" viewBox="0 0 37 26" fill="none" xmlns="http://www.w3.org/2000/svg">
<g id="mastercard-white" clip-path="url(#clip0_85_1454)">
<g id="Clip path group">
<mask id="mask0_85_1454" style="mask-type:luminance" maskUnits="userSpaceOnUse" x="0" y="0" width="37" height="26">
<g id="clip0_6714_2288">
<path id="Vector" d="M36.9997 0H0.333008V26H36.9997V0Z" fill="white"/>
</g>
</mask>
<g mask="url(#mask0_85_1454)">
<g id="Group">
<path id="Vector_2" d="M7.0054 25.8565V24.1347C7.0054 23.4746 6.56477 23.0442 5.8094 23.0442C5.43172 23.0442 5.02256 23.1589 4.7393 23.532C4.51899 23.2163 4.20425 23.0442 3.73215 23.0442C3.41741 23.0442 3.10268 23.1302 2.85089 23.4459V23.1015H2.22142V25.8565H2.88236V24.3355C2.88236 23.8477 3.16563 23.6181 3.60626 23.6181C4.04688 23.6181 4.2672 23.8764 4.2672 24.3355V25.8565H4.92814V24.3355C4.92814 23.8477 5.24288 23.6181 5.65204 23.6181C6.09266 23.6181 6.31298 23.8764 6.31298 24.3355V25.8565H7.0054ZM16.7937 23.1015H15.7236V22.2693H15.0626V23.1015H14.4646V23.6468H15.0626V24.9095C15.0626 25.5408 15.3459 25.9139 16.1012 25.9139C16.3845 25.9139 16.6992 25.8278 16.9196 25.713L16.7307 25.1965C16.5419 25.3113 16.3216 25.34 16.1642 25.34C15.8495 25.34 15.7236 25.1678 15.7236 24.8808V23.6468H16.7937V23.1015ZM22.3645 23.0442C21.9868 23.0442 21.735 23.2163 21.5776 23.4459V23.1015H20.9167V25.8565H21.5776V24.3068C21.5776 23.8477 21.798 23.5894 22.2071 23.5894C22.333 23.5894 22.4904 23.6181 22.6163 23.6468L22.8051 23.0729C22.6792 23.0729 22.4904 23.0442 22.3645 23.0442ZM13.9296 23.3311C13.6148 23.1302 13.1742 23.0442 12.7021 23.0442C11.9467 23.0442 11.4432 23.3885 11.4432 23.9338C11.4432 24.3929 11.8208 24.6512 12.4818 24.7373L12.7965 24.766C13.1427 24.8234 13.3316 24.9095 13.3316 25.053C13.3316 25.2539 13.0798 25.3974 12.6392 25.3974C12.1985 25.3974 11.8523 25.2539 11.632 25.1104L11.3173 25.5695C11.6635 25.7991 12.1356 25.9139 12.6077 25.9139C13.4889 25.9139 13.9925 25.5408 13.9925 25.0243C13.9925 24.5364 13.5834 24.2781 12.9539 24.1921L12.6392 24.1634C12.3559 24.1347 12.1356 24.0773 12.1356 23.9051C12.1356 23.7042 12.3559 23.5894 12.7021 23.5894C13.0798 23.5894 13.4575 23.7329 13.6463 23.819L13.9296 23.3311ZM31.4603 23.0442C31.0827 23.0442 30.8309 23.2163 30.6735 23.4459V23.1015H30.0126V25.8565H30.6735V24.3068C30.6735 23.8477 30.8938 23.5894 31.303 23.5894C31.4289 23.5894 31.5862 23.6181 31.7121 23.6468L31.901 23.0729C31.7751 23.0729 31.5862 23.0442 31.4603 23.0442ZM23.0254 24.479C23.0254 25.3113 23.6549 25.9139 24.6306 25.9139C25.0712 25.9139 25.3859 25.8278 25.7007 25.5982L25.3859 25.1104C25.1342 25.2826 24.8824 25.3687 24.5991 25.3687C24.0641 25.3687 23.6864 25.0243 23.6864 24.479C23.6864 23.9625 24.0641 23.6181 24.5991 23.5894C24.8824 23.5894 25.1342 23.6755 25.3859 23.8477L25.7007 23.3598C25.3859 23.1302 25.0712 23.0442 24.6306 23.0442C23.6549 23.0442 23.0254 23.6468 23.0254 24.479ZM29.1628 24.479V23.1015H28.5018V23.4459C28.2815 23.1876 27.9668 23.0442 27.5576 23.0442C26.7078 23.0442 26.0469 23.6468 26.0469 24.479C26.0469 25.3113 26.7078 25.9139 27.5576 25.9139C27.9982 25.9139 28.313 25.7704 28.5018 25.5121V25.8565H29.1628V24.479ZM26.7078 24.479C26.7078 23.9912 27.054 23.5894 27.6206 23.5894C28.1556 23.5894 28.5333 23.9625 28.5333 24.479C28.5333 24.9669 28.1556 25.3687 27.6206 25.3687C27.054 25.3687 26.7078 24.9669 26.7078 24.479ZM18.808 23.0442C17.9267 23.0442 17.2972 23.6181 17.2972 24.479C17.2972 25.34 17.9267 25.9139 18.8394 25.9139C19.2801 25.9139 19.7207 25.7991 20.0669 25.5408L19.7522 25.1104C19.5004 25.2826 19.1857 25.3974 18.8709 25.3974C18.4618 25.3974 18.0526 25.2252 17.9582 24.7373H20.1928C20.1928 24.6512 20.1928 24.5938 20.1928 24.5077C20.2558 23.6181 19.6578 23.0442 18.808 23.0442ZM18.808 23.5894C19.2171 23.5894 19.5004 23.819 19.5633 24.2495H17.9897C18.0841 23.8477 18.3359 23.5894 18.808 23.5894ZM35.2372 24.479V22.011H34.5762V23.4459C34.3559 23.1876 34.0412 23.0442 33.632 23.0442C32.7822 23.0442 32.1213 23.6468 32.1213 24.479C32.1213 25.3113 32.7822 25.9139 33.632 25.9139C34.0726 25.9139 34.3874 25.7704 34.5762 25.5121V25.8565H35.2372V24.479ZM32.7822 24.479C32.7822 23.9912 33.1284 23.5894 33.695 23.5894C34.23 23.5894 34.6077 23.9625 34.6077 24.479C34.6077 24.9669 34.23 25.3687 33.695 25.3687C33.1284 25.3687 32.7822 24.9669 32.7822 24.479ZM10.6878 24.479V23.1015H10.0269V23.4459C9.80654 23.1876 9.49181 23.0442 9.08265 23.0442C8.23286 23.0442 7.57192 23.6468 7.57192 24.479C7.57192 25.3113 8.23286 25.9139 9.08265 25.9139C9.52328 25.9139 9.83802 25.7704 10.0269 25.5121V25.8565H10.6878V24.479ZM8.26434 24.479C8.26434 23.9912 8.61055 23.5894 9.17707 23.5894C9.71212 23.5894 10.0898 23.9625 10.0898 24.479C10.0898 24.9669 9.71212 25.3687 9.17707 25.3687C8.61055 25.3687 8.26434 24.9669 8.26434 24.479ZM36.3073 25.4547C36.3387 25.4547 36.4017 25.4547 36.4332 25.4834C36.4646 25.4834 36.4961 25.5121 36.5276 25.5408C36.559 25.5695 36.5905 25.5982 36.5905 25.6269C36.5905 25.6556 36.622 25.6843 36.622 25.7417C36.622 25.7704 36.622 25.8278 36.5905 25.8565C36.559 25.8852 36.559 25.9139 36.5276 25.9426C36.4961 25.9713 36.4646 26 36.4332 26C36.4017 26.0287 36.3702 26.0287 36.3073 26.0287C36.2758 26.0287 36.2128 26.0287 36.1814 26C36.1499 25.9713 36.1184 25.9713 36.0869 25.9426C36.0555 25.9139 36.024 25.8852 36.024 25.8565C35.9925 25.8278 35.9925 25.7991 35.9925 25.7417C35.9925 25.713 35.9925 25.6556 36.024 25.6269C36.0555 25.5982 36.0555 25.5695 36.0869 25.5408C36.1184 25.5121 36.1499 25.4834 36.1814 25.4834C36.2443 25.4547 36.2758 25.4547 36.3073 25.4547ZM36.3073 25.9426C36.3387 25.9426 36.3702 25.9426 36.4017 25.9139C36.4332 25.9139 36.4646 25.8852 36.4646 25.8565C36.4961 25.8278 36.4961 25.8278 36.5276 25.7991C36.5276 25.7704 36.559 25.7417 36.559 25.713C36.559 25.6843 36.559 25.6556 36.5276 25.6269C36.5276 25.5982 36.4961 25.5695 36.4646 25.5695C36.4332 25.5408 36.4332 25.5408 36.4017 25.5121C36.3702 25.5121 36.3387 25.4834 36.3073 25.4834C36.2758 25.4834 36.2443 25.4834 36.2128 25.5121C36.1814 25.5121 36.1499 25.5408 36.1499 25.5695C36.1184 25.5982 36.1184 25.5982 36.0869 25.6269C36.0869 25.6556 36.0555 25.6843 36.0555 25.713C36.0555 25.7417 36.0555 25.7704 36.0869 25.7991C36.0869 25.8278 36.1184 25.8565 36.1499 25.8565C36.1814 25.8852 36.1814 25.8852 36.2128 25.9139C36.2443 25.9426 36.2758 25.9426 36.3073 25.9426ZM36.3387 25.5982C36.3702 25.5982 36.4017 25.5982 36.4332 25.6269C36.4646 25.6556 36.4646 25.6556 36.4646 25.6843C36.4646 25.713 36.4646 25.713 36.4332 25.7417C36.4332 25.7417 36.4017 25.7704 36.3702 25.7704L36.4646 25.8565H36.4017L36.3073 25.7704H36.2758V25.8565H36.2128V25.5982H36.3387ZM36.2758 25.6556V25.713H36.3387H36.3702C36.3702 25.713 36.3702 25.713 36.3702 25.6843V25.6556H36.3387H36.2758ZM35.9296 16.7307V16.3863H36.0869V16.3289H35.7093V16.3863H35.8666V16.7307H35.9296ZM36.6535 16.7307V16.3289H36.5276L36.4017 16.6159L36.2758 16.3289H36.1499V16.7307H36.2443V16.415L36.3702 16.6733H36.4646L36.5905 16.415V16.7307H36.6535ZM17.6749 18.7395C17.7693 18.7969 17.8638 18.883 17.9582 18.9404C16.1642 20.0309 13.9925 20.6623 11.695 20.6623C5.40025 20.6623 0.333008 16.0419 0.333008 10.3311C0.333008 4.62031 5.40025 0 11.6635 0C13.9925 0 16.1327 0.631347 17.9267 1.72185C17.8323 1.77925 17.7379 1.86534 17.6435 1.92274C14.9682 4.04636 13.4575 7.0883 13.4575 10.3311C13.4575 13.5453 14.9997 16.6159 17.6749 18.7395ZM25.6692 0C23.3402 0 21.2 0.631347 19.406 1.72185C19.5004 1.77925 19.5948 1.86534 19.6892 1.92274C22.3645 4.04636 23.8752 7.0883 23.8752 10.3311C23.8752 13.5453 22.333 16.6159 19.6892 18.7395C19.5948 18.7969 19.5004 18.883 19.406 18.9404C21.2 20.0309 23.3716 20.6623 25.6692 20.6623C31.9324 20.6623 36.9997 16.0419 36.9997 10.3311C36.9997 4.62031 31.9324 0 25.6692 0ZM18.6506 2.20971C18.4932 2.3245 18.3673 2.4106 18.21 2.52539C15.8495 4.41943 14.3387 7.23179 14.3387 10.3311C14.3387 13.4305 15.8495 16.2428 18.2414 18.1369C18.3673 18.2517 18.5247 18.3664 18.6821 18.4525C18.8394 18.3378 18.9653 18.2517 19.1227 18.1369C21.4832 16.2428 22.994 13.4305 22.994 10.3311C22.994 7.23179 21.4832 4.41943 19.0912 2.52539C18.9653 2.43929 18.808 2.3245 18.6506 2.20971Z" fill="#643737"/>
</g>
</g>
</g>
</g>
<defs>
<clipPath id="clip0_85_1454">
<rect width="37" height="26" fill="white"/>
</clipPath>
</defs>
</svg>
