<svg width="87" height="28" viewBox="0 0 87 28" fill="none" xmlns="http://www.w3.org/2000/svg">
<g id="download 1">
<path id="Vector" d="M11.2156 2.8623H4.63432C4.21245 2.8623 3.79057 3.1998 3.7062 3.62168L1.09057 20.4967C1.0062 20.8342 1.25932 21.0873 1.59682 21.0873H4.7187C5.14057 21.0873 5.56245 20.7498 5.64682 20.3279L6.32182 15.7717C6.4062 15.3498 6.7437 15.0123 7.24995 15.0123H9.35932C13.6624 15.0123 16.1937 12.9029 16.8687 8.76856C17.1218 6.99668 16.8687 5.56231 16.0249 4.54981C15.0968 3.45293 13.4093 2.8623 11.2156 2.8623ZM11.9749 9.02168C11.6374 11.3842 9.78119 11.3842 8.0937 11.3842H7.0812L7.7562 6.99668C7.7562 6.74356 8.00932 6.57481 8.26245 6.57481H8.68432C9.86557 6.57481 10.9624 6.57481 11.5531 7.24981C11.9749 7.58731 12.1437 8.17793 11.9749 9.02168Z" fill="#003087"/>
<path id="Vector_2" d="M30.7912 8.9375H27.6693C27.4162 8.9375 27.1631 9.10625 27.1631 9.35937L26.9943 10.2031L26.7412 9.86563C26.0662 8.85313 24.5474 8.51562 23.0287 8.51562C19.5693 8.51562 16.6162 11.1312 16.0256 14.8437C15.6881 16.7 16.1099 18.4719 17.2068 19.6531C18.1349 20.75 19.5693 21.2562 21.1724 21.2562C23.9568 21.2562 25.5599 19.4844 25.5599 19.4844L25.3912 20.3281C25.3068 20.6656 25.5599 21.0031 25.8974 21.0031H28.7662C29.1881 21.0031 29.6099 20.6656 29.6943 20.2437L31.3818 9.44375C31.4662 9.275 31.1287 8.9375 30.7912 8.9375ZM26.4881 15.0125C26.1506 16.7844 24.8006 18.05 22.9443 18.05C22.0162 18.05 21.3412 17.7969 20.8349 17.2062C20.3287 16.6156 20.1599 15.8563 20.3287 15.0125C20.5818 13.2406 22.1006 11.975 23.8724 11.975C24.8006 11.975 25.4756 12.3125 25.9818 12.8187C26.4037 13.4094 26.5724 14.1688 26.4881 15.0125Z" fill="#003087"/>
<path id="Vector_3" d="M47.5812 8.9375H44.4593C44.1218 8.9375 43.8687 9.10625 43.7 9.35937L39.3125 15.7719L37.4562 9.6125C37.3718 9.19063 36.95 8.9375 36.6125 8.9375H33.4906C33.1531 8.9375 32.8156 9.275 32.9843 9.69687L36.4437 19.9062L33.1531 24.4625C32.9 24.8 33.1531 25.3062 33.575 25.3062H36.6968C37.0343 25.3062 37.2875 25.1375 37.4562 24.8844L48.0031 9.69687C48.2562 9.44375 48.0031 8.9375 47.5812 8.9375Z" fill="#003087"/>
<path id="Vector_4" d="M58.0437 2.8623H51.4624C51.0406 2.8623 50.6187 3.1998 50.5343 3.62168L47.9187 20.4123C47.8343 20.7498 48.0874 21.0029 48.4249 21.0029H51.7999C52.1374 21.0029 52.3906 20.7498 52.3906 20.4967L53.1499 15.6873C53.2343 15.2654 53.5718 14.9279 54.0781 14.9279H56.1874C60.4906 14.9279 63.0218 12.8186 63.6968 8.68418C63.9499 6.9123 63.6968 5.47793 62.8531 4.46543C61.8406 3.45293 60.2374 2.8623 58.0437 2.8623ZM58.8031 9.02168C58.4656 11.3842 56.6093 11.3842 54.9218 11.3842H53.9093L54.5843 6.99668C54.5843 6.74355 54.8374 6.5748 55.0906 6.5748H55.5124C56.6937 6.5748 57.7906 6.5748 58.3812 7.2498C58.8031 7.5873 58.8874 8.17793 58.8031 9.02168Z" fill="#009CDE"/>
<path id="Vector_5" d="M77.6193 8.9375H74.4974C74.2443 8.9375 73.9912 9.10625 73.9912 9.35937L73.8224 10.2031L73.5693 9.86563C72.8943 8.85313 71.3756 8.51562 69.8568 8.51562C66.3974 8.51562 63.4443 11.1312 62.8537 14.8437C62.5162 16.7 62.9381 18.4719 64.0349 19.6531C64.9631 20.75 66.3974 21.2562 68.0006 21.2562C70.7849 21.2562 72.3881 19.4844 72.3881 19.4844L72.2193 20.3281C72.1349 20.6656 72.3881 21.0031 72.7256 21.0031H75.5943C76.0162 21.0031 76.4381 20.6656 76.5224 20.2437L78.2099 9.44375C78.2099 9.275 77.9568 8.9375 77.6193 8.9375ZM73.2318 15.0125C72.8943 16.7844 71.5443 18.05 69.6881 18.05C68.7599 18.05 68.0849 17.7969 67.5787 17.2062C67.0724 16.6156 66.9037 15.8563 67.0724 15.0125C67.3256 13.2406 68.8443 11.975 70.6162 11.975C71.5443 11.975 72.2193 12.3125 72.7256 12.8187C73.2318 13.4094 73.4006 14.1688 73.2318 15.0125Z" fill="#009CDE"/>
<path id="Vector_6" d="M81.3316 3.28418L78.6316 20.4123C78.5472 20.7498 78.8003 21.0029 79.1378 21.0029H81.8378C82.2597 21.0029 82.6816 20.6654 82.766 20.2436L85.466 3.45293C85.5503 3.11543 85.2972 2.8623 84.9597 2.8623H81.9222C81.5847 2.8623 81.416 3.03105 81.3316 3.28418Z" fill="#009CDE"/>
</g>
</svg>
