<svg width="58" height="14" viewBox="0 0 58 14" fill="none" xmlns="http://www.w3.org/2000/svg">
<g id="paypal-white" clip-path="url(#clip0_85_1482)">
<path id="Vector" d="M7.46633 0.00195324H3.05872C2.9128 0.00186791 2.77165 0.0500991 2.66069 0.137956C2.54974 0.225813 2.47628 0.34752 2.45355 0.481146L0.670908 10.9595C0.662713 11.0081 0.665982 11.0578 0.680489 11.1051C0.694996 11.1525 0.720396 11.1963 0.754942 11.2337C0.789488 11.2711 0.832359 11.301 0.880601 11.3216C0.928844 11.3421 0.981313 11.3527 1.0344 11.3526H3.13863C3.28464 11.3527 3.42587 11.3044 3.53684 11.2164C3.6478 11.1284 3.72121 11.0066 3.7438 10.8728L4.22458 8.04666C4.24716 7.91303 4.32047 7.79126 4.4313 7.7033C4.54214 7.61533 4.68321 7.56695 4.82911 7.56687H6.22441C9.12781 7.56687 10.8035 6.26433 11.2411 3.68314C11.4383 2.55387 11.2494 1.66658 10.6791 1.04519C10.0526 0.362841 8.94155 0.00195324 7.46633 0.00195324ZM7.97483 3.82893C7.73379 5.29519 6.52539 5.29519 5.35694 5.29519H4.69183L5.15844 2.55685C5.1721 2.47674 5.21615 2.40378 5.28267 2.35109C5.34918 2.29841 5.4338 2.26946 5.52128 2.26946H5.82612C6.62206 2.26946 7.37288 2.26946 7.76086 2.6901C7.99223 2.94105 8.06312 3.31388 7.97483 3.82893ZM20.6415 3.78172H18.5308C18.4433 3.78173 18.3587 3.81067 18.2922 3.86336C18.2257 3.91604 18.1816 3.98901 18.168 4.06912L18.0745 4.61643L17.9269 4.41806C17.47 3.80323 16.4511 3.5977 15.4341 3.5977C13.1017 3.5977 11.1096 5.23544 10.7216 7.53281C10.5199 8.67882 10.8067 9.77463 11.5079 10.5388C12.1511 11.2415 13.0714 11.5343 14.1664 11.5343C16.0457 11.5343 17.0878 10.414 17.0878 10.414L16.9937 10.9577C16.9853 11.0063 16.9884 11.056 17.0028 11.1034C17.0171 11.1508 17.0423 11.1948 17.0768 11.2323C17.1112 11.2697 17.154 11.2999 17.2022 11.3205C17.2504 11.3412 17.3028 11.352 17.3559 11.352H19.2571C19.4031 11.3521 19.5444 11.3038 19.6553 11.2158C19.7663 11.1278 19.8397 11.006 19.8623 10.8722L21.003 4.17488C21.0114 4.12637 21.0084 4.07676 20.9941 4.02946C20.9798 3.98216 20.9545 3.9383 20.9202 3.90092C20.8858 3.86354 20.8431 3.83352 20.7949 3.81294C20.7468 3.79236 20.6945 3.78171 20.6415 3.78172ZM17.6994 7.59017C17.4958 8.70809 16.5387 9.45855 15.3181 9.45855C14.7052 9.45855 14.2153 9.27631 13.9008 8.93096C13.5889 8.588 13.4703 8.09984 13.5696 7.55612C13.7597 6.44776 14.7329 5.6728 15.9348 5.6728C16.5342 5.6728 17.0214 5.85743 17.3424 6.20577C17.664 6.5577 17.7916 7.04884 17.6994 7.59017ZM31.8825 3.78172H29.7616C29.6615 3.78187 29.563 3.80464 29.4747 3.84806C29.3863 3.89148 29.3106 3.95423 29.2543 4.03088L26.329 8.02575L25.0891 4.18683C25.051 4.06974 24.9733 3.96713 24.8674 3.89417C24.7616 3.82121 24.6332 3.78178 24.5013 3.78172H22.417C22.3585 3.78158 22.3008 3.79439 22.2487 3.8191C22.1967 3.8438 22.1517 3.87968 22.1176 3.92375C22.0835 3.96782 22.0612 4.01881 22.0527 4.07247C22.0441 4.12612 22.0495 4.1809 22.0684 4.23224L24.4046 10.5884L22.2082 13.463C22.1692 13.514 22.146 13.5739 22.1413 13.6362C22.1366 13.6986 22.1504 13.761 22.1814 13.8165C22.2123 13.872 22.2592 13.9186 22.3168 13.9511C22.3744 13.9836 22.4405 14.0008 22.5079 14.0007H24.6263C24.7252 14.0009 24.8227 13.9787 24.9104 13.9363C24.998 13.8938 25.0733 13.8323 25.1297 13.757L32.1842 4.31649C32.2224 4.26541 32.2448 4.20561 32.249 4.14356C32.2532 4.08151 32.239 4.01958 32.2079 3.96448C32.1768 3.90939 32.1301 3.86323 32.0727 3.83102C32.0154 3.7988 31.9496 3.78175 31.8825 3.78172Z" fill="#643737"/>
<path id="Vector_2" d="M38.9049 0.000597454H34.4967C34.3509 0.000654481 34.2099 0.04895 34.099 0.136795C33.9882 0.224639 33.9148 0.346266 33.8921 0.479791L32.1095 10.9581C32.1012 11.0066 32.1044 11.0563 32.1188 11.1036C32.1331 11.1509 32.1584 11.1947 32.1928 11.2321C32.2273 11.2695 32.27 11.2995 32.3182 11.32C32.3663 11.3406 32.4187 11.3513 32.4717 11.3513H34.7338C34.8359 11.3511 34.9345 11.3172 35.012 11.2557C35.0895 11.1941 35.1408 11.1089 35.1566 11.0155L35.6625 8.04531C35.6851 7.91167 35.7584 7.7899 35.8692 7.70194C35.9801 7.61397 36.1212 7.56559 36.2671 7.56551H37.6617C40.5658 7.56551 42.2408 6.26297 42.679 3.68178C42.8769 2.55251 42.6867 1.66523 42.1164 1.04383C41.4906 0.361486 40.3801 0.000597454 38.9049 0.000597454ZM39.4134 3.82757C39.173 5.29383 37.9646 5.29383 36.7955 5.29383H36.1311L36.5983 2.5555C36.6117 2.47538 36.6556 2.40236 36.722 2.34964C36.7885 2.29693 36.8731 2.268 36.9605 2.2681H37.2654C38.0606 2.2681 38.8121 2.2681 39.2001 2.68874C39.4315 2.93969 39.5017 3.31253 39.4134 3.82757ZM52.0794 3.78037H49.97C49.8826 3.78014 49.7979 3.80903 49.7314 3.86176C49.665 3.9145 49.6211 3.9876 49.6078 4.06776L49.5144 4.61507L49.3662 4.4167C48.9092 3.80188 47.8909 3.59634 46.8739 3.59634C44.5416 3.59634 42.5501 5.23408 42.1621 7.53146C41.9611 8.67746 42.2466 9.77327 42.9478 10.5375C43.5922 11.2401 44.5113 11.5329 45.6062 11.5329C47.4856 11.5329 48.5277 10.4126 48.5277 10.4126L48.4336 10.9563C48.4252 11.005 48.4283 11.0548 48.4427 11.1023C48.4571 11.1498 48.4825 11.1938 48.5171 11.2313C48.5516 11.2688 48.5946 11.2989 48.6429 11.3195C48.6913 11.3401 48.7439 11.3508 48.7971 11.3507H50.6977C50.8436 11.3506 50.9846 11.3022 51.0955 11.2142C51.2063 11.1263 51.2796 11.0045 51.3022 10.8709L52.4436 4.17352C52.4517 4.12486 52.4483 4.07516 52.4337 4.02782C52.4191 3.98048 52.3936 3.93663 52.3591 3.89928C52.3245 3.86193 52.2816 3.83196 52.2333 3.81143C52.185 3.79091 52.1325 3.78031 52.0794 3.78037ZM49.1374 7.58882C48.935 8.70674 47.9767 9.45719 46.756 9.45719C46.1444 9.45719 45.6533 9.27496 45.3388 8.9296C45.0269 8.58664 44.9096 8.09848 45.0075 7.55476C45.1989 6.4464 46.1708 5.67145 47.3728 5.67145C47.9721 5.67145 48.4594 5.85607 48.7803 6.20442C49.1032 6.55634 49.2308 7.04748 49.1374 7.58882ZM54.5678 0.287994L52.7587 10.9581C52.7504 11.0066 52.7536 11.0563 52.768 11.1036C52.7824 11.1509 52.8076 11.1947 52.8421 11.2321C52.8765 11.2695 52.9192 11.2995 52.9674 11.32C53.0155 11.3406 53.0679 11.3513 53.1209 11.3513H54.9396C55.2419 11.3513 55.4984 11.1481 55.5448 10.8715L57.3287 0.393751C57.337 0.345183 57.3339 0.295528 57.3195 0.2482C57.3051 0.200872 57.2798 0.156993 57.2454 0.119579C57.211 0.0821652 57.1682 0.0521042 57.1201 0.0314622C57.072 0.0108202 57.0196 8.70194e-05 56.9665 0H54.93C54.8425 0.000287024 54.7581 0.0294261 54.6917 0.0821974C54.6253 0.134969 54.5814 0.207924 54.5678 0.287994Z" fill="#643737"/>
</g>
<defs>
<clipPath id="clip0_85_1482">
<rect width="58" height="14" fill="white"/>
</clipPath>
</defs>
</svg>
