<svg width="56" height="16" viewBox="0 0 56 16" fill="none" xmlns="http://www.w3.org/2000/svg">
<g id="visa-white" clip-path="url(#clip0_85_1460)">
<path id="Vector" d="M24.4071 15.7697H19.9067L22.7216 0.28125H27.2217L24.4071 15.7697Z" fill="#643737"/>
<path id="Vector_2" d="M40.7216 0.659404C39.8339 0.346017 38.426 0 36.6851 0C32.2408 0 29.1112 2.10895 29.092 5.12412C29.0551 7.3487 31.3327 8.58429 33.0362 9.32603C34.7774 10.084 35.3692 10.5787 35.3692 11.2543C35.3515 12.2919 33.9623 12.7702 32.6666 12.7702C30.8698 12.7702 29.9071 12.5236 28.444 11.9463L27.8514 11.6989L27.2217 15.1757C28.2772 15.6036 30.2219 15.9834 32.2408 16C36.9629 16 40.0372 13.9237 40.0736 10.7105C40.0916 8.94739 38.8889 7.59639 36.296 6.49242C34.722 5.78374 33.758 5.30589 33.758 4.58078C33.7765 3.9216 34.5733 3.24643 36.3502 3.24643C37.8132 3.21336 38.8882 3.52631 39.7025 3.83947L40.1095 4.00394L40.7216 0.659404Z" fill="#643737"/>
<path id="Vector_3" d="M46.7026 10.2827C47.0732 9.39288 48.4993 5.94914 48.4993 5.94914C48.4806 5.98221 48.8692 5.04293 49.0914 4.4663L49.4059 5.80088C49.4059 5.80088 50.2582 9.5083 50.4432 10.2827C49.7399 10.2827 47.5915 10.2827 46.7026 10.2827ZM52.2577 0.28125H48.7767C47.7032 0.28125 46.8876 0.561129 46.4245 1.56633L39.7397 15.7695H44.4618C44.4618 15.7695 45.2393 13.8578 45.4064 13.4461C45.9244 13.4461 50.518 13.4461 51.1845 13.4461C51.3137 13.9899 51.7215 15.7695 51.7215 15.7695H55.8884L52.2577 0.28125Z" fill="#643737"/>
<path id="Vector_4" d="M16.1477 0.28125L11.7403 10.8429L11.2587 8.70085C10.4439 6.22924 7.88839 3.54389 5.03662 2.20865L9.0736 15.7533H13.8326L20.9064 0.28125H16.1477Z" fill="#643737"/>
<path id="Vector_5" d="M7.64775 0.28125H0.407083L0.333008 0.594198C5.98118 1.8795 9.72186 4.97766 11.2587 8.70151L9.6847 1.5832C9.42556 0.593979 8.62919 0.31388 7.64775 0.28125Z" fill="#643737"/>
</g>
<defs>
<clipPath id="clip0_85_1460">
<rect width="56" height="16" fill="white"/>
</clipPath>
</defs>
</svg>
