<svg width="198" height="48" viewBox="0 0 198 48" fill="none" xmlns="http://www.w3.org/2000/svg">
<path d="M13.3137 13.0842C13.6465 13.0504 14.1543 13.0139 14.447 12.9998C14.7396 12.9885 15.1528 12.9773 15.3708 12.9801C15.586 12.9829 15.7696 12.9914 15.7754 12.9998C15.784 13.0083 15.7668 13.1714 15.7381 13.3656C15.7065 13.5597 15.6549 13.9704 15.6233 14.2799C15.5946 14.5894 15.5544 15.0621 15.5372 15.3266C15.5229 15.5938 15.5085 16.2409 15.5085 16.7614C15.5085 17.2847 15.5229 17.9262 15.5372 18.1907C15.5544 18.4551 15.586 18.8828 15.609 19.1472C15.6348 19.4117 15.6864 19.8787 15.7266 20.1882C15.7668 20.4977 15.8442 20.9985 15.8987 21.2995C15.9532 21.6006 16.0479 22.076 16.1111 22.3546C16.1742 22.6331 16.2889 23.0973 16.3693 23.3871C16.4467 23.6797 16.5816 24.1355 16.6676 24.4C16.7537 24.6672 16.9087 25.1089 17.0091 25.379C17.1095 25.6491 17.273 26.0543 17.3677 26.2793C17.4624 26.5044 17.6431 26.9011 17.7665 27.1656C17.8899 27.4301 18.1137 27.8661 18.26 28.1362C18.4092 28.4063 18.6531 28.8312 18.8051 29.0787C18.9543 29.3263 19.2212 29.7371 19.3962 29.9931C19.5712 30.2491 19.8466 30.6346 20.013 30.8512C20.1794 31.0679 20.4348 31.3914 20.584 31.5686C20.7332 31.7459 20.9856 32.0385 21.1435 32.2157C21.3041 32.393 21.6513 32.7587 21.921 33.0288C22.1878 33.2961 22.5895 33.6787 22.8104 33.8757C23.0313 34.0726 23.3871 34.3765 23.5994 34.5509C23.8117 34.7253 24.2449 35.0573 24.5606 35.2909C24.8761 35.5216 25.3869 35.8761 25.6938 36.0786C26.0008 36.2784 26.4857 36.5766 26.7697 36.7426C27.0538 36.9085 27.4124 37.1139 27.5674 37.1983C27.7223 37.2827 27.8457 37.3642 27.8457 37.3783C27.8457 37.3925 27.8083 37.4515 27.7682 37.5051C27.7298 37.5526 27.6208 37.683 27.5142 37.8105L27.4756 37.8568C27.355 37.9974 27.0825 38.2871 26.8702 38.5008C26.6578 38.7149 26.3537 39.0076 26.1959 39.1481C26.0352 39.2887 25.7512 39.5252 25.5647 39.6741C25.3754 39.8204 25.0655 40.0511 24.8761 40.1834C24.6868 40.3156 24.3884 40.5126 24.2162 40.6195C24.0441 40.7263 23.7199 40.915 23.499 41.036C23.278 41.1599 22.9166 41.3425 22.6956 41.4468C22.4747 41.5507 22.1189 41.7083 21.9066 41.7956C21.6943 41.8829 21.2553 42.043 20.9311 42.1473C20.6069 42.2542 20.1622 42.3864 19.9413 42.44C19.7204 42.4961 19.379 42.5722 19.181 42.6113C18.983 42.6508 18.6674 42.7015 18.4781 42.7269C18.2801 42.7522 17.7665 42.7776 17.273 42.7859C16.7222 42.7971 16.2516 42.7888 15.9676 42.7689C15.7237 42.7493 15.3737 42.7156 15.193 42.6932C15.0122 42.6707 14.6765 42.62 14.447 42.5805C14.2175 42.5385 13.8129 42.4512 13.5432 42.3864C13.2735 42.319 12.8432 42.1951 12.582 42.1107C12.321 42.0263 11.948 41.8941 11.75 41.8151C11.5521 41.7394 11.2221 41.5985 11.0184 41.5058C10.8147 41.4156 10.4704 41.2468 10.2581 41.1345C10.0458 41.0219 9.74164 40.8531 9.58387 40.7604C9.42605 40.6673 9.142 40.4902 8.95265 40.3634C8.76327 40.2399 8.43335 40.0091 8.22102 39.8516C8.00873 39.694 7.71034 39.4633 7.56115 39.3394C7.41196 39.2184 7.10208 38.9482 6.87541 38.7403C6.64588 38.532 6.27577 38.1662 6.05198 37.9271C5.82819 37.688 5.52122 37.3446 5.37203 37.1675C5.22568 36.99 4.99618 36.7032 4.86419 36.5344C4.73507 36.3656 4.46826 35.9914 4.27604 35.7044C4.08091 35.4175 3.80547 34.9814 3.66203 34.7338C3.51571 34.4862 3.28332 34.0557 3.1456 33.7772C3.00501 33.4987 2.81565 33.0992 2.72671 32.891C2.6349 32.6828 2.48571 32.3086 2.39103 32.061C2.29635 31.8134 2.15002 31.383 2.06682 31.1044C1.98361 30.8259 1.86598 30.3898 1.8086 30.1338C1.75121 29.8778 1.66514 29.4529 1.62211 29.1913C1.5762 28.9296 1.51882 28.5357 1.49587 28.3191C1.47004 28.1024 1.43849 27.7423 1.42127 27.5172C1.40693 27.2922 1.39258 26.7998 1.39258 26.42C1.39258 26.0402 1.40693 25.5478 1.42127 25.3228C1.43849 25.0977 1.47004 24.7376 1.49587 24.5209C1.52169 24.3043 1.57046 23.9442 1.60776 23.7191C1.64506 23.494 1.71105 23.1536 1.75121 22.9595C1.79138 22.7653 1.87172 22.4362 1.9291 22.228C1.98361 22.0198 2.09264 21.6512 2.17297 21.4121C2.25044 21.1729 2.39963 20.7678 2.50292 20.5118C2.60621 20.2557 2.77835 19.8703 2.88164 19.6537C2.9878 19.437 3.16855 19.0938 3.28332 18.894C3.40095 18.6943 3.60465 18.3623 3.7395 18.1625C3.87149 17.9628 4.06083 17.6955 4.15551 17.5717C4.25022 17.4479 4.45105 17.2003 4.60308 17.023C4.75228 16.8458 5.04495 16.5335 5.2515 16.3337C5.45521 16.1312 5.76509 15.8555 5.94011 15.7204C6.11512 15.5854 6.39627 15.38 6.57128 15.2674C6.7463 15.1521 7.00453 14.9945 7.1451 14.9102C7.28571 14.8285 7.61567 14.6598 7.87674 14.5332C8.13784 14.4093 8.47351 14.2574 8.6227 14.1984C8.77189 14.1393 9.0502 14.0352 9.23955 13.9677C9.42893 13.8973 9.75314 13.7932 9.95685 13.7313C10.1605 13.6722 10.4905 13.5822 10.6884 13.5344C10.8864 13.4865 11.1934 13.4162 11.3684 13.3768C11.5463 13.3402 11.9222 13.2727 12.2005 13.2277C12.4816 13.1827 12.9809 13.118 13.3137 13.0842Z" fill="url(#paint0_linear_3206_16040)"/>
<path d="M21.7919 0.583448C22.0911 0.559037 22.5263 0.529202 22.7575 0.51564C22.9887 0.502079 23.7067 0.496654 24.3486 0.502079C24.9905 0.507503 25.7004 0.526489 25.9261 0.542763C26.1492 0.559037 26.5844 0.597009 26.8917 0.626844C27.1991 0.65668 27.7131 0.719063 28.0341 0.762459C28.355 0.808569 28.8201 0.8818 29.0676 0.925197C29.3151 0.968595 29.7177 1.04996 29.9652 1.1015C30.2127 1.15574 30.6098 1.24525 30.8492 1.30492C31.0885 1.36459 31.4938 1.47308 31.7467 1.54631C31.9996 1.61955 32.4049 1.7416 32.6443 1.81754C32.8836 1.8962 33.3378 2.05351 33.6506 2.17014C33.9634 2.28677 34.4231 2.46849 34.6706 2.57156C34.9181 2.67734 35.3397 2.86449 35.6089 2.99197C35.8782 3.11674 36.3134 3.33372 36.5743 3.47205C36.8355 3.61037 37.2272 3.82735 37.4447 3.95483C37.6625 4.08231 38.0215 4.302 38.2474 4.44576C38.4703 4.58953 38.802 4.80921 38.9817 4.93396C39.161 5.05874 39.4738 5.28658 39.6753 5.44117C39.8764 5.59305 40.2136 5.86157 40.4231 6.03518C40.6326 6.20875 40.9672 6.49896 41.1683 6.68069C41.3698 6.86241 41.7477 7.2313 42.0088 7.49981C42.27 7.76832 42.6588 8.18332 42.8683 8.4247C43.0803 8.66337 43.3687 9.00512 43.5128 9.18413C43.6572 9.36046 43.8827 9.65338 44.0187 9.83239C44.1522 10.0114 44.3915 10.3477 44.5464 10.5783C44.7043 10.8088 44.9163 11.1451 45.0251 11.3242C45.1313 11.5032 45.3 11.8015 45.4004 11.9886C45.5012 12.1758 45.6561 12.4877 45.7459 12.6803C45.8358 12.8729 45.9743 13.1983 46.0533 13.3991C46.1322 13.5998 46.2409 13.8981 46.2926 14.0636C46.3471 14.229 46.4286 14.5138 46.4748 14.7009C46.521 14.8881 46.589 15.2109 46.6246 15.4197C46.6599 15.6286 46.7032 15.9703 46.7225 16.1792C46.7414 16.407 46.7468 16.7515 46.7388 17.0335C46.7279 17.2939 46.7032 17.6302 46.6817 17.7794C46.6599 17.9286 46.6217 18.1429 46.5974 18.2541C46.5726 18.3653 46.5184 18.5795 46.4748 18.7287C46.4315 18.8779 46.3388 19.141 46.2708 19.3118C46.2027 19.4827 46.0831 19.7404 46.0071 19.8814C45.9336 20.0225 45.7812 20.2747 45.6754 20.4375C45.5663 20.6002 45.3869 20.8443 45.2753 20.9799C45.1611 21.1156 44.949 21.3434 44.7996 21.4898C44.6526 21.639 44.4133 21.8533 44.2718 21.9672C44.1303 22.0811 43.8557 22.2791 43.6597 22.4093C43.464 22.5368 43.1702 22.7158 43.0069 22.8026C42.8439 22.8921 42.5799 23.0223 42.4224 23.0955C42.2645 23.166 42.0008 23.2772 41.8375 23.3396C41.6742 23.402 41.4215 23.4915 41.28 23.5376C41.1385 23.5837 40.9046 23.6515 40.7631 23.6922C40.6217 23.7329 40.3525 23.798 40.1648 23.8414C39.9772 23.8848 39.5989 23.9553 39.3214 24.0014C39.0443 24.0475 38.6333 24.1045 38.4103 24.1262C38.1848 24.1479 37.7931 24.1777 37.54 24.194C37.2872 24.2076 36.8329 24.2211 36.5336 24.2211C36.2345 24.2211 35.7585 24.2076 35.473 24.194C35.1873 24.1777 34.7603 24.1479 34.521 24.1262C34.2816 24.1018 33.8954 24.0611 33.6642 24.0313C33.433 24.0014 33.1012 23.9526 32.9298 23.9228C32.7585 23.8902 32.4947 23.836 32.3451 23.798C32.1955 23.76 31.9697 23.6976 31.8419 23.6597C31.7141 23.6217 31.4747 23.5376 31.3115 23.4752C31.1483 23.4129 30.8845 23.2989 30.7267 23.223C30.569 23.1471 30.3242 23.0142 30.1828 22.9301C30.0413 22.8433 29.821 22.6995 29.6932 22.61C29.5653 22.5205 29.3532 22.3551 29.2172 22.2439C29.0812 22.1327 28.8011 21.8696 28.5916 21.6607C28.3822 21.4492 28.064 21.102 27.8817 20.885C27.7022 20.668 27.3894 20.2775 27.1882 20.0143C26.9869 19.7513 26.5708 19.1952 26.2607 18.7803C25.9506 18.3625 25.5998 17.9069 25.4774 17.7659C25.355 17.6248 25.083 17.3319 24.8708 17.1176C24.6587 16.9033 24.3622 16.6212 24.2126 16.4938C24.063 16.3636 23.8182 16.1656 23.6686 16.0544C23.5191 15.9405 23.2498 15.7506 23.0703 15.6313C22.8907 15.5119 22.616 15.3411 22.4583 15.2516C22.3006 15.162 22.0259 15.0129 21.8463 14.9233C21.6668 14.8338 21.354 14.6928 21.1527 14.606C20.9515 14.5219 20.5897 14.3863 20.3504 14.305C20.111 14.2236 19.7384 14.107 19.5208 14.0473C19.3032 13.9876 18.8871 13.8927 18.5961 13.833C18.305 13.7761 17.8889 13.7028 17.6713 13.673C17.4537 13.6432 17.0566 13.5998 16.7874 13.5781C16.5181 13.5564 16.0666 13.5238 15.781 13.5075C15.4084 13.4858 15.0711 13.4858 14.5706 13.5075C14.1899 13.5238 13.6377 13.5591 13.3467 13.5889C13.0556 13.6187 12.6205 13.6757 12.3811 13.7137C12.1418 13.7516 11.7991 13.814 11.6196 13.852C11.4401 13.8873 11.1218 13.9605 10.9124 14.012C10.703 14.0663 10.3711 14.1558 10.178 14.2127C9.98491 14.2724 9.67758 14.3728 9.49805 14.4406C9.31853 14.5057 9.05473 14.606 8.91329 14.663C8.77184 14.7199 8.45363 14.8664 8.20609 14.9858C7.95859 15.1078 7.6458 15.2705 7.51254 15.3492C7.37655 15.4306 7.13174 15.5824 6.96855 15.6936C6.80266 15.8022 6.53337 16.0002 6.37018 16.1303C6.20429 16.2605 5.91052 16.5263 5.71743 16.7216C5.52158 16.9142 5.24414 17.2153 5.10273 17.3861C4.95856 17.557 4.76816 17.7957 4.67843 17.915C4.58867 18.0344 4.40914 18.292 4.28403 18.4846C4.15619 18.6772 3.96309 18.9972 3.85158 19.1898C3.7428 19.3824 3.57143 19.7133 3.47079 19.9221C3.37288 20.131 3.20968 20.5026 3.11177 20.7494C3.01385 20.9962 2.87242 21.3868 2.79898 21.6173C2.72283 21.8479 2.61947 22.2032 2.56779 22.4039C2.51339 22.6046 2.43724 22.9219 2.39916 23.1091C2.36108 23.2962 2.29852 23.6244 2.26317 23.8414C2.22781 24.0584 2.18157 24.4056 2.15709 24.6144C2.13261 24.8233 2.10269 25.1704 2.08637 25.3874C2.07277 25.6044 2.05917 26.079 2.05917 26.4452C2.05917 26.8114 2.07277 27.286 2.08637 27.503C2.10269 27.72 2.13261 28.0672 2.15709 28.276C2.17885 28.4849 2.23324 28.8646 2.27676 29.1168C2.31756 29.3691 2.39916 29.7786 2.45355 30.0254C2.50795 30.2723 2.61947 30.6927 2.69834 30.9612C2.77722 31.2297 2.91593 31.6447 3.00569 31.8834C3.09545 32.1221 3.23688 32.4828 3.32392 32.6835C3.40823 32.8842 3.58775 33.2693 3.72101 33.5379C3.85158 33.8064 4.07188 34.2214 4.2106 34.46C4.34659 34.6987 4.60769 35.1191 4.79267 35.3958C4.97489 35.6725 5.22785 36.0332 5.35023 36.1959C5.47535 36.3586 5.69292 36.6353 5.83164 36.8063C5.97308 36.9769 6.26412 37.308 6.47627 37.5384C6.68842 37.7691 7.03929 38.1215 7.25686 38.3222C7.47173 38.5232 7.7655 38.7833 7.90691 38.8999C8.04835 39.0195 8.33121 39.2419 8.53249 39.3936C8.73376 39.5458 9.04655 39.7682 9.22607 39.8873C9.40556 40.0094 9.67485 40.1804 9.82444 40.2698C9.97404 40.3593 10.2623 40.522 10.4636 40.6306C10.6649 40.7389 10.9913 40.9019 11.1844 40.9885C11.3775 41.078 11.6903 41.2138 11.878 41.287C12.0656 41.363 12.4192 41.4902 12.6667 41.5717C12.9142 41.6532 13.3222 41.7723 13.5779 41.8375C13.8335 41.8998 14.217 41.9839 14.4346 42.0248C14.6522 42.0625 14.9705 42.1114 15.1418 42.1331C15.3132 42.1548 15.645 42.1874 15.8762 42.2063C16.1454 42.2255 16.5915 42.2334 17.1137 42.2226C17.5815 42.2146 18.0684 42.19 18.2561 42.1657C18.4356 42.1414 18.7348 42.0925 18.9225 42.0545C19.1101 42.0165 19.4338 41.9433 19.6432 41.889C19.8526 41.8375 20.2742 41.71 20.5816 41.6068C20.8889 41.5065 21.3051 41.3522 21.5063 41.2678C21.7076 41.1837 22.0449 41.032 22.2543 40.9316C22.4638 40.8313 22.8064 40.6549 23.0159 40.5357C23.2253 40.4191 23.5327 40.2372 23.6958 40.134C23.859 40.0311 24.1419 39.8413 24.3214 39.7138C24.5009 39.5863 24.7947 39.3639 24.9742 39.2227C25.151 39.0792 25.4203 38.8514 25.5726 38.7156C25.7222 38.5801 26.0105 38.2979 26.2118 38.0918C26.413 37.8857 26.6714 37.6065 26.7856 37.4706C26.8998 37.3352 27.1256 37.0367 27.2888 36.8063C27.4547 36.5756 27.6669 36.2583 27.7675 36.101C27.8654 35.9437 28.0177 35.6806 28.1075 35.5179C28.1973 35.3551 28.336 35.073 28.4203 34.894C28.5019 34.715 28.627 34.4221 28.695 34.2431C28.763 34.0641 28.8691 33.7467 28.9289 33.5379C28.9915 33.329 29.0785 32.9819 29.122 32.7649C29.1655 32.5479 29.2227 32.2197 29.2444 32.0326C29.2689 31.8454 29.2961 31.444 29.3042 31.1375C29.3151 30.7984 29.307 30.4242 29.2879 30.1746C29.2689 29.9522 29.2363 29.6539 29.2145 29.5182C29.1927 29.3799 29.1819 29.2524 29.19 29.2389C29.1982 29.2226 29.394 29.3013 29.6306 29.4125C29.8673 29.521 30.2698 29.6945 30.5228 29.7949C30.7757 29.8952 31.2 30.0472 31.4611 30.1339C31.7222 30.2207 32.1628 30.3536 32.4403 30.4296C32.7177 30.5055 33.1393 30.6086 33.3786 30.6601C33.618 30.7116 33.9961 30.7876 34.2218 30.8256C34.4448 30.8635 34.8256 30.9178 35.065 30.9476C35.3043 30.9747 35.6715 31.0154 35.8809 31.0317C36.0904 31.0507 36.6423 31.0643 37.105 31.0669C37.5673 31.0669 38.1194 31.0507 38.3289 31.0317C38.5384 31.0127 38.8919 30.9748 39.1177 30.9476C39.3407 30.9178 39.6968 30.8635 39.9062 30.8256C40.1157 30.7876 40.5075 30.7008 40.7766 30.6357C41.0461 30.5706 41.4622 30.454 41.7015 30.3753C41.9408 30.2994 42.3325 30.161 42.5719 30.0661C42.8112 29.9739 43.1785 29.8166 43.3876 29.7217C43.5971 29.624 43.9452 29.4504 44.1631 29.3338C44.3806 29.2172 44.7152 29.0246 44.9109 28.9053C45.1069 28.7886 45.4004 28.5988 45.5637 28.4849C45.727 28.3737 46.0289 28.1567 46.23 28.0021C46.4315 27.8502 46.7741 27.5735 46.9916 27.3891C47.2091 27.2046 47.5248 26.9199 47.6932 26.7544C47.9002 26.5564 48.0089 26.4669 48.0278 26.4859C48.0471 26.5049 48.0144 26.6595 47.93 26.9605C47.8594 27.2074 47.7096 27.6902 47.5983 28.0319C47.4866 28.3763 47.2964 28.9188 47.1767 29.2389C47.0571 29.5589 46.8312 30.1204 46.6734 30.4865C46.5184 30.8527 46.2136 31.5036 45.9991 31.9376C45.7841 32.3716 45.4957 32.9249 45.3571 33.1717C45.2211 33.4185 44.9952 33.8037 44.8621 34.0261C44.7261 34.2512 44.4566 34.677 44.2609 34.9754C44.0623 35.2737 43.7739 35.6941 43.619 35.9111C43.464 36.1281 43.2411 36.4319 43.1185 36.5892C42.9988 36.7465 42.7515 37.0584 42.5689 37.2808C42.3896 37.5061 42.0579 37.8966 41.8346 38.1487C41.6117 38.4012 41.1603 38.8836 40.8312 39.2172C40.502 39.5512 40.0423 39.996 39.8113 40.2075C39.58 40.4191 39.2618 40.7009 39.1039 40.8367C38.9461 40.9722 38.6606 41.2109 38.4649 41.3656C38.2688 41.5228 37.9644 41.7589 37.7848 41.8944C37.6054 42.0302 37.2734 42.2686 37.0504 42.4261C36.8246 42.5833 36.5012 42.8032 36.3297 42.9144C36.1584 43.0256 35.8156 43.2397 35.5681 43.3889C35.3206 43.5382 34.9344 43.7606 34.7114 43.8852C34.4856 44.0101 34.0042 44.2597 33.637 44.4412C33.2698 44.6205 32.7068 44.8805 32.3859 45.0164C32.0649 45.1518 31.7141 45.2956 31.6107 45.3362C31.5074 45.3771 31.2 45.4883 30.9307 45.5832C30.6615 45.6807 30.1828 45.8382 29.87 45.9331C29.5572 46.028 29.054 46.1664 28.7548 46.2396C28.4556 46.3156 28.0259 46.416 27.8029 46.462C27.5771 46.508 27.1882 46.5812 26.9325 46.6246C26.6768 46.6681 26.2797 46.7279 26.0486 46.7576C25.8173 46.7902 25.4257 46.8336 25.1782 46.8554C24.9307 46.8771 24.5227 46.9068 24.267 46.9231C24.0114 46.9365 23.462 46.9503 23.0431 46.9503C22.6242 46.9503 22.0748 46.9365 21.8191 46.9231C21.5635 46.9093 21.1555 46.8771 20.908 46.8525C20.6605 46.8307 20.2688 46.7876 20.0376 46.7576C19.8064 46.7279 19.3658 46.6627 19.0584 46.6083C18.7511 46.5569 18.354 46.4837 18.1745 46.4457C17.995 46.4077 17.5843 46.3102 17.2633 46.2287C16.9424 46.1501 16.4528 46.0143 16.1754 45.9302C15.8979 45.8462 15.4818 45.7107 15.2506 45.6292C15.0194 45.5477 14.6577 45.4123 14.4482 45.3308C14.2388 45.2496 13.8716 45.095 13.6323 44.9917C13.3929 44.886 12.9224 44.6636 12.5851 44.493C12.2479 44.3245 11.7773 44.0724 11.538 43.937C11.2986 43.8011 10.8961 43.557 10.6404 43.3969C10.3847 43.2342 9.95771 42.9466 9.68845 42.7543C9.41916 42.5645 9.03294 42.2769 8.83167 42.1197C8.63039 41.9596 8.31219 41.6992 8.12451 41.5391C7.93684 41.379 7.58325 41.0646 7.33847 40.8393C7.09366 40.6114 6.70744 40.2318 6.48169 39.9931C6.25594 39.7544 5.935 39.4045 5.77181 39.2172C5.60588 39.0303 5.35565 38.7319 5.21152 38.5529C5.06738 38.3765 4.82257 38.0592 4.66483 37.8506C4.50705 37.6416 4.2378 37.262 4.06646 37.0095C3.89239 36.7574 3.64216 36.3722 3.50887 36.1552C3.37287 35.9383 3.14168 35.5422 2.99209 35.2737C2.8425 35.0052 2.62763 34.6011 2.51339 34.3787C2.40188 34.1563 2.21692 33.763 2.09997 33.5107C1.98573 33.2585 1.7899 32.792 1.66479 32.4801C1.53967 32.1682 1.36288 31.6908 1.27041 31.4223C1.18065 31.1538 1.03922 30.7089 0.957619 30.4323C0.876021 30.1556 0.753627 29.7054 0.685632 29.4287C0.617633 29.1521 0.51972 28.7127 0.46532 28.4523C0.413641 28.1919 0.340206 27.7932 0.304847 27.5708C0.269489 27.3484 0.215091 26.9687 0.185172 26.73C0.155254 26.4913 0.111736 26.0818 0.0872564 25.8214C0.0654977 25.561 0.032859 25.0402 0.0165397 24.6686C0.000220397 24.2971 -0.00521936 23.7167 0.0056602 23.3803C0.0138199 23.044 0.0328591 22.5802 0.0491785 22.3496C0.0627779 22.1191 0.100856 21.6905 0.130775 21.4003C0.160694 21.1101 0.215091 20.6653 0.25317 20.4104C0.291248 20.1554 0.370123 19.6997 0.42996 19.3932C0.489801 19.0867 0.587714 18.6365 0.647551 18.3897C0.707392 18.1429 0.821625 17.7116 0.903223 17.4268C0.98482 17.142 1.13169 16.6728 1.23233 16.3826C1.33024 16.0924 1.47984 15.6828 1.55871 15.474C1.64031 15.2651 1.80079 14.8746 1.91502 14.606C2.03198 14.3375 2.27948 13.8059 2.46987 13.4262C2.66027 13.0464 2.94313 12.5148 3.09817 12.2463C3.2532 11.9778 3.45991 11.6306 3.55783 11.4733C3.65576 11.316 3.9767 10.8278 4.26773 10.3884C4.56146 9.94899 4.94496 9.39299 5.12448 9.15432C5.30128 8.91562 5.60319 8.5359 5.79086 8.3135C5.97854 8.0911 6.30762 7.71678 6.52522 7.48623C6.7401 7.25571 7.08824 6.90581 7.29766 6.71054C7.5044 6.51523 7.7791 6.26301 7.90691 6.15449C8.03475 6.04329 8.24963 5.86157 8.38289 5.75037C8.51619 5.63916 8.85073 5.3788 9.12271 5.17538C9.39742 4.96924 9.84892 4.64918 10.1291 4.46474C10.4119 4.28302 10.8063 4.03349 11.0076 3.91415C11.2089 3.79481 11.508 3.62393 11.674 3.53443C11.8399 3.44492 12.1989 3.25777 12.4763 3.11944C12.7538 2.98112 13.1563 2.78855 13.3739 2.69362C13.5915 2.59597 14.0267 2.41696 14.3395 2.29219C14.6522 2.16743 15.1119 1.99655 15.3594 1.91247C15.6069 1.82839 16.0095 1.6982 16.257 1.62497C16.5045 1.54903 16.9886 1.41612 17.3313 1.32933C17.674 1.23982 18.1881 1.12048 18.4737 1.06081C18.7593 1.00114 19.2543 0.908923 19.5752 0.85739C19.8962 0.803143 20.4048 0.729912 20.704 0.694652C21.0031 0.65668 21.4927 0.607858 21.7919 0.583448Z" fill="url(#paint1_linear_3206_16040)"/>
<path d="M58.3348 28.9428C59.4735 28.9428 60.4283 28.5594 61.1982 27.7925C61.9842 27.0097 62.3774 26.0671 62.3774 24.9647C62.3774 23.8464 61.9842 22.8958 61.1982 22.113C60.4123 21.3301 59.4575 20.9387 58.3348 20.9387C57.244 20.9387 56.3053 21.3381 55.5193 22.1369C54.7333 22.9357 54.3402 23.8783 54.3402 24.9647C54.3402 26.0511 54.7333 26.9857 55.5193 27.7685C56.3053 28.5514 57.244 28.9428 58.3348 28.9428ZM58.5272 31.6987C56.6184 31.6987 54.9901 31.0277 53.6426 29.6857C52.295 28.3437 51.6211 26.7221 51.6211 24.8209C51.6211 22.9198 52.295 21.2982 53.6426 19.9562C54.9901 18.6142 56.6184 17.9432 58.5272 17.9432C60.4363 17.9432 62.0646 18.6142 63.4121 19.9562C64.7596 21.2982 65.4332 22.9198 65.4332 24.8209C65.4332 26.7221 64.7596 28.3437 63.4121 29.6857C62.0646 31.0277 60.4363 31.6987 58.5272 31.6987ZM73.8003 28.9428C74.9071 28.9428 75.8538 28.5594 76.6398 27.7925C77.4417 27.0097 77.8429 26.0671 77.8429 24.9647C77.8429 23.8624 77.4417 22.9277 76.6398 22.1609C75.8538 21.3781 74.9071 20.9866 73.8003 20.9866C72.6935 20.9866 71.7468 21.3781 70.9608 22.1609C70.1909 22.9277 69.8061 23.8624 69.8061 24.9647C69.8061 26.0511 70.1989 26.9857 70.9848 27.7685C71.7712 28.5514 72.7095 28.9428 73.8003 28.9428ZM69.7577 30.6203V36.8511H66.9426V18.087H69.7577V19.2372C70.3673 18.8059 70.9848 18.4864 71.6108 18.2787C72.2364 18.055 72.9179 17.9432 73.6559 17.9432C75.565 17.9432 77.1933 18.6142 78.5409 19.9562C79.888 21.2982 80.562 22.9198 80.562 24.8209C80.562 26.7541 79.888 28.3916 78.5409 29.7336C77.1933 31.0756 75.565 31.7466 73.6559 31.7466C72.95 31.7466 72.2764 31.6508 71.6348 31.459C71.0092 31.2513 70.3833 30.9718 69.7577 30.6203ZM88.7432 20.747C87.6524 20.747 86.7061 21.1384 85.9037 21.9212C85.1018 22.7041 84.7006 23.6387 84.7006 24.7251C84.7006 25.8274 85.0938 26.778 85.8797 27.5768C86.6821 28.3597 87.6364 28.7511 88.7432 28.7511C89.8503 28.7511 90.7887 28.3597 91.5587 27.5768C92.3446 26.778 92.7378 25.8274 92.7378 24.7251C92.7378 23.6227 92.3446 22.6881 91.5587 21.9212C90.7887 21.1384 89.8503 20.747 88.7432 20.747ZM92.7858 19.1174V18.087H95.6013V31.6508H92.7858V30.4286C92.1762 30.8599 91.5506 31.1875 90.9091 31.4111C90.2831 31.6348 89.6095 31.7466 88.8876 31.7466C86.9789 31.7466 85.3505 31.0756 84.003 29.7336C82.6555 28.3916 81.9815 26.77 81.9815 24.8689C81.9815 22.9677 82.6555 21.3461 84.003 20.0041C85.3505 18.6621 86.9789 17.9911 88.8876 17.9911C90.2995 17.9911 91.5987 18.3665 92.7858 19.1174ZM98.1028 12.4553H100.918V31.6508H98.1028V12.4553ZM103.719 18.087H106.535V31.6508H103.719V18.087ZM105.091 12.4074C105.588 12.4074 106.013 12.5832 106.366 12.9346C106.735 13.2701 106.919 13.6775 106.919 14.1568C106.919 14.6521 106.743 15.0674 106.39 15.403C106.053 15.7225 105.62 15.8822 105.091 15.8822C104.594 15.8822 104.168 15.7145 103.816 15.379C103.462 15.0435 103.286 14.6361 103.286 14.1568C103.286 13.6616 103.462 13.2462 103.816 12.9107C104.168 12.5752 104.594 12.4074 105.091 12.4074ZM111.986 18.087V18.8778C112.676 18.1908 113.775 17.8473 115.283 17.8473C116.919 17.8473 118.339 18.2467 119.542 19.0455C120.937 19.9721 121.635 21.2423 121.635 22.8559V31.6508H118.796V23.2633C118.796 22.4325 118.459 21.7934 117.785 21.3461C117.112 20.8828 116.31 20.6512 115.379 20.6512C114.465 20.6512 113.663 20.8908 112.973 21.3701C112.283 21.8334 111.938 22.4804 111.938 23.3112L111.986 31.6508H109.171V18.087H111.986ZM126.254 23.2633H134.219C133.705 22.3526 133.24 21.7215 132.823 21.3701C132.165 20.8109 131.323 20.5313 130.296 20.5313C129.142 20.5313 128.243 20.8109 127.602 21.3701C127.248 21.6736 126.799 22.3047 126.254 23.2633ZM126.037 25.6597C126.214 26.6023 126.671 27.3851 127.409 28.0082C128.147 28.6313 129.005 28.9428 129.984 28.9428H130.489C131.002 28.9428 131.411 28.8869 131.716 28.775C132.037 28.6632 132.366 28.4076 132.703 28.0082H136.456C135.638 29.2224 134.748 30.125 133.786 30.7162C132.711 31.3712 131.491 31.6987 130.128 31.6987C128.219 31.6987 126.591 31.0277 125.243 29.6857C123.896 28.3437 123.222 26.7221 123.222 24.8209C123.222 22.9198 123.896 21.2982 125.243 19.9562C126.591 18.6142 128.219 17.9432 130.128 17.9432C132.069 17.9432 133.713 18.6142 135.061 19.9562C136.408 21.2982 137.082 22.9198 137.082 24.8209L137.034 25.6597H126.037Z" fill="#7A0999"/>
<path d="M147.886 20.4594C149.217 21.1784 150.212 22.0491 150.87 23.0715C151.463 23.9982 151.76 24.9966 151.76 26.0671C151.76 27.5688 151.223 28.8789 150.148 29.9972C149.089 31.0996 147.782 31.6507 146.226 31.6507C145.488 31.6507 144.734 31.5069 143.964 31.2194C143.194 30.9318 142.432 30.4845 141.678 29.8774L143.098 27.6727C143.723 28.136 144.309 28.4795 144.854 28.7031C145.416 28.9108 145.937 29.0147 146.418 29.0147C147.188 29.0147 147.79 28.7671 148.223 28.2718C148.656 27.7765 148.873 27.1694 148.873 26.4505C148.873 25.8115 148.68 25.1884 148.295 24.5813C147.91 23.9582 147.365 23.4629 146.659 23.0955C145.728 22.6162 145.039 22.089 144.59 21.5138C144.156 20.9227 143.94 20.3396 143.94 19.7645C143.94 19.1573 144.18 18.6541 144.662 18.2547C145.159 17.8553 145.801 17.6556 146.587 17.6556C147.405 17.6556 148.247 17.8553 149.113 18.2547L147.886 20.4594ZM155.871 12.4553V18.8778C156.561 18.1908 157.66 17.8473 159.168 17.8473C160.804 17.8473 162.224 18.2467 163.427 19.0455C164.823 19.9721 165.52 21.2422 165.52 22.8559V31.6507H162.681V23.2632C162.681 22.4325 162.344 21.7934 161.67 21.3461C160.996 20.8828 160.194 20.6511 159.264 20.6511C158.35 20.6511 157.547 20.8908 156.858 21.3701C156.168 21.8334 155.823 22.4804 155.823 23.3112L155.871 31.6507H153.056V12.4553H155.871ZM173.82 28.9428C174.959 28.9428 175.914 28.5594 176.684 27.7925C177.47 27.0097 177.863 26.0671 177.863 24.9647C177.863 23.8464 177.47 22.8958 176.684 22.1129C175.898 21.3301 174.943 20.9387 173.82 20.9387C172.73 20.9387 171.791 21.3381 171.005 22.1369C170.219 22.9357 169.826 23.8783 169.826 24.9647C169.826 26.0511 170.219 26.9857 171.005 27.7685C171.791 28.5513 172.73 28.9428 173.82 28.9428ZM174.013 31.6987C172.104 31.6987 170.476 31.0277 169.128 29.6857C167.781 28.3437 167.107 26.7221 167.107 24.8209C167.107 22.9198 167.781 21.2982 169.128 19.9562C170.476 18.6142 172.104 17.9432 174.013 17.9432C175.922 17.9432 177.55 18.6142 178.898 19.9562C180.245 21.2982 180.919 22.9198 180.919 24.8209C180.919 26.7221 180.245 28.3437 178.898 29.6857C177.55 31.0277 175.922 31.6987 174.013 31.6987ZM189.286 28.9428C190.393 28.9428 191.339 28.5594 192.125 27.7925C192.928 27.0097 193.328 26.0671 193.328 24.9647C193.328 23.8624 192.928 22.9277 192.125 22.1609C191.339 21.378 190.393 20.9866 189.286 20.9866C188.179 20.9866 187.233 21.378 186.447 22.1609C185.677 22.9277 185.292 23.8624 185.292 24.9647C185.292 26.0511 185.685 26.9857 186.471 27.7685C187.257 28.5513 188.195 28.9428 189.286 28.9428ZM185.244 30.6203V36.8511H182.428V18.087H185.244V19.2372C185.853 18.8059 186.471 18.4863 187.096 18.2787C187.722 18.055 188.404 17.9432 189.142 17.9432C191.051 17.9432 192.679 18.6142 194.026 19.9562C195.374 21.2982 196.048 22.9198 196.048 24.8209C196.048 26.7541 195.374 28.3916 194.026 29.7336C192.679 31.0756 191.051 31.7466 189.142 31.7466C188.436 31.7466 187.762 31.6508 187.12 31.459C186.495 31.2513 185.869 30.9718 185.244 30.6203Z" fill="#9B04BF"/>
<defs>
<linearGradient id="paint0_linear_3206_16040" x1="10.0943" y1="21.9924" x2="35.9429" y2="42.946" gradientUnits="userSpaceOnUse">
<stop stop-color="#3C046B"/>
<stop offset="0.734375" stop-color="#CB89FF"/>
</linearGradient>
<linearGradient id="paint1_linear_3206_16040" x1="24.0166" y1="0.5" x2="24.0166" y2="51.0875" gradientUnits="userSpaceOnUse">
<stop stop-color="#9504A2"/>
<stop offset="1" stop-color="#8200ED"/>
</linearGradient>
</defs>
</svg>
